<svg width="220" height="60" viewBox="0 0 220 60" fill="none" xmlns="http://www.w3.org/2000/svg">
<path d="M124.622 10.2916C125.602 9.74845 126.461 9.34561 127.199 9.08307C127.937 8.82192 128.736 8.70663 129.596 8.73997C130.389 8.77053 131.175 9.01501 131.953 9.47341C132.731 9.93181 133.485 10.568 134.217 11.382L135.334 10.7583C135.975 10.4069 136.69 10.111 137.477 9.86652C138.264 9.62343 138.99 9.51508 139.652 9.54009C141.139 9.59843 142.33 10.0804 143.224 10.9875C144.118 11.8946 144.796 13.0489 145.258 14.4519C145.721 15.8549 146.011 17.4232 146.129 19.154C146.248 20.8862 146.275 22.6226 146.212 24.3645C146.186 25.0813 146.155 25.9008 146.121 26.8232C146.087 27.7455 146.021 28.6151 145.927 29.4319C145.831 30.2487 145.657 30.9446 145.405 31.5155C145.153 32.0878 144.812 32.3823 144.383 32.399C143.425 32.4309 142.46 32.4435 141.488 32.4393C140.514 32.4365 139.551 32.4157 138.595 32.3782C138.266 32.3657 138.062 32.2726 137.987 32.0976C137.911 31.9239 137.878 31.717 137.886 31.478L137.899 31.1196L137.922 30.5043C137.926 30.4015 137.938 30.2917 137.96 30.1723C137.98 30.0542 137.994 29.9431 137.996 29.8403L138.035 28.7651C138.066 27.9122 138.123 27.0677 138.202 26.2328C138.283 25.398 138.321 24.5534 138.32 23.6977C138.302 23.2532 138.244 22.8156 138.144 22.3822C138.043 21.9516 138.018 21.5141 138.068 21.0709L137.945 20.3486C137.888 20.0736 137.79 19.8124 137.65 19.5679C137.51 19.3235 137.256 19.1929 136.892 19.179C136.295 19.1554 135.843 19.4888 135.536 20.1778C135.229 20.8667 135.009 21.6446 134.878 22.5114C134.747 23.3782 134.668 24.1797 134.641 24.9132C134.614 25.648 134.599 26.0661 134.595 26.1675C134.591 26.2689 134.579 26.3814 134.557 26.4995C134.536 26.619 134.524 26.7287 134.521 26.8315L134.498 27.4469C134.474 28.0956 134.443 28.7096 134.405 29.2902C134.366 29.8708 134.273 30.3709 134.126 30.7932C133.978 31.2155 133.75 31.5475 133.442 31.7934C133.135 32.0378 132.682 32.149 132.086 32.1253L128.01 31.967C127.644 31.9531 127.366 31.8642 127.172 31.7031C126.98 31.5419 126.891 31.2224 126.908 30.7446C127.012 29.7222 127.124 28.6929 127.245 27.6539C127.365 26.6162 127.446 25.5508 127.486 24.4576C127.507 23.9116 127.52 23.2963 127.53 22.6128C127.538 21.9294 127.495 21.2863 127.402 20.6834C127.307 20.0819 127.151 19.5707 126.935 19.1512C126.718 18.7317 126.393 18.515 125.963 18.4983C125.267 18.472 124.77 18.8803 124.475 19.7235V19.6721C123.977 21.5002 123.678 23.3268 123.578 25.1521C123.477 26.9788 123.396 28.7443 123.334 30.4529C123.299 31.41 122.867 31.8711 122.039 31.8392L116.867 31.6378C116.536 31.6253 116.307 31.5225 116.181 31.3294C116.056 31.1363 115.972 30.9029 115.933 30.6265C115.893 30.3515 115.886 30.0778 115.913 29.8042C115.94 29.5319 115.956 29.3097 115.962 29.1388L116.58 8.18016C116.629 7.73843 116.776 7.37588 117.018 7.09389C117.261 6.8133 117.614 6.66466 118.081 6.64799H120.769C121.133 6.66466 121.531 6.67994 121.962 6.69661C122.393 6.71328 122.841 6.69661 123.309 6.64661C124.27 6.68411 124.734 7.18141 124.699 8.1371L124.62 10.2888L124.622 10.2916Z" fill="#F36D3B"/>
<path d="M183.652 16.0827C183.582 16.2424 183.521 16.4383 183.47 16.6703C183.418 16.9037 183.362 17.1537 183.303 17.4204C185.169 16.53 187.2 16.3452 189.399 16.8661C190.466 17.119 191.388 17.5663 192.163 18.2052C192.939 18.8456 193.551 19.6485 193.999 20.6125C194.446 21.578 194.712 22.6753 194.796 23.9047C194.879 25.134 194.765 26.4481 194.452 27.8469C194.134 28.9638 193.801 30.0778 193.452 31.1863C193.102 32.2962 192.8 33.4172 192.548 34.5493L191.878 36.8635C191.598 37.8151 191.345 38.6041 191.119 39.2347C190.893 39.8654 190.47 40.1251 189.848 40.0126C188.83 39.8417 187.829 39.6834 186.841 39.5375C185.852 39.3917 184.89 39.2069 183.952 38.9847C183.499 38.8777 183.234 38.6485 183.16 38.2971C183.085 37.947 183.089 37.5886 183.171 37.2205C183.575 36.019 183.983 34.7646 184.392 33.4602C184.802 32.1545 185.199 30.8807 185.577 29.6375C185.666 29.2374 185.723 28.8304 185.749 28.4151C185.773 27.9997 185.781 27.5816 185.773 27.1579L185.762 27.2079C185.722 26.7773 185.588 26.3439 185.364 25.9036C185.138 25.4646 184.851 25.116 184.5 24.8576C183.782 24.7229 183.159 24.8034 182.634 25.0993C182.109 25.3952 181.652 25.805 181.263 26.3259C180.874 26.8482 180.554 27.4469 180.301 28.1234C180.047 28.7998 179.838 29.4694 179.674 30.132C179.508 30.7946 179.386 31.3877 179.302 31.9114C179.218 32.4351 179.151 32.8143 179.1 33.0477C179.062 33.2144 179.017 33.3783 178.964 33.5422C178.91 33.7047 178.865 33.87 178.827 34.0367L178.482 35.5856C178.467 35.6522 178.442 35.7259 178.408 35.805C178.373 35.8842 178.349 35.9578 178.334 36.0245L178.267 36.3246C178.044 37.3233 177.463 37.7123 176.526 37.49C175.782 37.3136 175.053 37.1497 174.338 36.9983C173.622 36.8469 172.894 36.6829 172.15 36.5065C171.794 36.4218 171.529 36.2801 171.352 36.0815C171.176 35.8814 171.134 35.4953 171.228 34.9202L172.884 25.2132C172.89 25.1799 172.888 25.1535 172.876 25.1326C172.862 25.1118 172.869 25.0521 172.89 24.9521L173.532 21.1584C173.713 20.0444 173.883 18.9012 174.043 17.7288C174.202 16.5564 174.404 15.4215 174.65 14.3213C174.791 13.6893 175.015 13.2948 175.322 13.1392C175.628 12.9836 176.174 12.9822 176.958 13.1323L181.952 14.3158C182.114 14.3533 182.277 14.3838 182.443 14.4061C182.607 14.4283 182.772 14.4575 182.934 14.4964C183.288 14.5811 183.526 14.7422 183.643 14.9798C183.76 15.2173 183.763 15.5868 183.651 16.0869L183.652 16.0827Z" fill="#99BC5C"/>
<path d="M191.144 12.6405C192.19 12.76 194.193 13.9018 195.112 14.5255C195.8 14.9922 197.613 16.5188 197.899 17.2703C198.324 18.3872 197.193 19.4484 196.149 18.9234C195.733 18.7136 195.115 17.8301 194.699 17.4634C193.991 16.8425 193.135 16.2758 192.312 15.8271C191.385 15.3214 189.322 14.9881 189.917 13.4253C190.091 12.9697 190.67 12.5863 191.144 12.6405Z" fill="#99BC5C"/>
<path d="M193.718 11.5723C193.418 10.7153 194.258 9.92904 195.068 10.1763C195.989 10.4569 200.138 12.8309 198.139 13.988C197.379 14.4283 196.269 13.2365 195.557 12.7725C195.087 12.4669 193.883 12.0432 193.718 11.5709V11.5723Z" fill="#99BC5C"/>
<path d="M6.34642 20.2583C5.50116 19.611 4.33101 17.5843 3.843 16.5675C3.47767 15.8063 2.66072 13.5462 2.7807 12.7489C2.96135 11.564 4.45773 11.2362 5.10077 12.2322C5.35691 12.6294 5.45667 13.7143 5.63732 14.2463C5.94334 15.1506 6.40573 16.0841 6.89644 16.8995C7.44916 17.8177 9.06688 19.179 7.78888 20.2181C7.41546 20.5209 6.72793 20.5501 6.34642 20.2583Z" fill="#6699B1"/>
<path d="M3.599 19.8429C3.43857 20.7389 2.32909 20.982 1.75076 20.3458C1.09288 19.6248 -1.3256 15.4173 0.966162 15.4576C1.83838 15.4728 2.21181 17.0786 2.60006 17.8496C2.8562 18.358 3.68797 19.3498 3.599 19.8429Z" fill="#6699B1"/>
<path d="M45.3361 29.9611C45.2107 29.6791 44.9168 29.4485 44.5987 29.3388C44.5623 29.3055 44.5245 29.2735 44.4828 29.2485C44.2873 29.1332 43.9705 29.1221 43.5323 29.2152L42.7087 29.3902C39.4153 30.0889 36.32 29.3902 33.4216 27.2941C34.5742 26.5773 35.6473 25.7411 36.6382 24.7826C37.629 23.8255 38.4581 22.7753 39.1254 21.6307C39.7927 20.4875 40.2673 19.2859 40.5504 18.026C40.8321 16.7675 40.8456 15.4979 40.5894 14.2158C40.1217 11.8779 39.1106 10.0693 37.5576 8.78718C36.0046 7.50643 34.2224 6.6063 32.2124 6.09095C30.201 5.57421 28.1155 5.34917 25.9545 5.41585C23.7935 5.48253 21.8536 5.69783 20.1334 6.06178C18.0479 6.5049 16.0258 7.12165 14.067 7.91066C12.1082 8.70105 10.1427 9.59841 8.16905 10.6069C7.9938 10.6833 7.85629 10.9 7.75519 11.2542C7.65408 11.6098 7.62712 11.9001 7.6716 12.1266C7.84551 12.9947 8.14613 13.8824 8.57753 14.7936C9.00757 15.7049 9.41604 16.5522 9.80025 17.3343C9.97011 17.6135 10.3354 17.7718 10.8963 17.8093C11.4571 17.8482 11.8831 17.8357 12.1769 17.7732C12.3603 17.7343 12.5504 17.6843 12.7472 17.6232C12.944 17.5621 13.153 17.5079 13.3727 17.4607L14.2854 25.1674C14.6669 28.0344 15.0565 30.9279 15.4501 33.852C15.8438 36.7746 16.294 39.6959 16.8023 42.6144C16.8481 42.8408 16.9991 43.0742 17.2566 43.3131C17.5141 43.5534 17.7163 43.6576 17.8632 43.627C21.4182 42.7144 24.9583 41.7281 28.4849 40.6641C29.2452 40.4641 29.5539 40.0043 29.411 39.2875C29.3584 39.0236 29.2978 38.8208 29.2317 38.6777C28.6763 37.6164 28.1896 36.5204 27.7731 35.3911C27.3552 34.2618 26.9575 33.1269 26.5773 31.9892C27.4671 32.6254 28.2881 33.2963 29.0389 34.0006C29.7898 34.7063 30.5744 35.3841 31.3914 36.0356C33.2167 37.5345 35.1661 38.5054 37.2381 38.9499C39.3101 39.3945 41.4994 39.3722 43.8047 38.8819C43.8923 38.8638 43.9745 38.8402 44.0527 38.8152C44.3843 38.7902 44.7119 38.6332 44.9532 38.311C45.4318 37.672 45.7702 35.2855 45.8052 34.4368C45.8524 33.3033 45.7729 30.946 45.3334 29.9597L45.3361 29.9611ZM29.5566 19.2707C29.256 19.9638 28.8219 20.6056 28.2544 21.1973C27.6868 21.7891 27.0411 22.3294 26.3185 22.817C25.5959 23.3046 24.8841 23.7019 24.1818 24.0075L22.1906 14.0546C23.0696 13.8685 23.9391 13.7824 24.7992 13.7949C25.6606 13.8087 26.4304 13.9407 27.1098 14.188C27.7893 14.4366 28.3662 14.7964 28.8421 15.2645C29.3167 15.734 29.6308 16.3452 29.7804 17.0995C29.9314 17.8538 29.8559 18.5775 29.5566 19.2693V19.2707Z" fill="#6699B1"/>
<path d="M77.4842 11.9168L77.4343 11.921C77.9169 11.7112 78.4642 11.4779 79.0776 11.2223C79.6897 10.9667 80.4756 10.8014 81.4354 10.7236C83.0221 10.5958 84.3675 10.8972 85.4716 11.6321C86.5757 12.3655 87.4911 13.4657 88.2177 14.9325C88.9443 16.3994 89.5213 18.1872 89.9487 20.2944C90.3747 22.4031 90.6888 24.7687 90.8883 27.3927C90.9328 27.9719 90.9827 28.5248 91.0393 29.0513C91.0959 29.5791 91.1458 30.132 91.1903 30.7099C91.2267 31.1877 91.1377 31.5628 90.9274 31.8364C90.7157 32.1114 90.4272 32.2629 90.0633 32.292L85.2182 32.8893C84.5266 32.9796 84.1168 32.6185 83.9874 31.8058L82.9453 25.9758C82.8267 25.3007 82.7269 24.5284 82.6447 23.6602C82.5611 22.792 82.4249 21.9808 82.2349 21.2251C82.0434 20.4695 81.7805 19.8471 81.4435 19.361C81.1065 18.8734 80.6414 18.6539 80.0455 18.7025C79.3176 18.7609 78.7945 19.1984 78.4764 20.0124C78.1569 20.8278 77.9735 21.8099 77.9277 22.9629C77.8805 24.1158 77.9061 25.3299 78.0032 26.6079C78.1002 27.8858 78.1865 29.0193 78.262 30.007L78.32 30.7737C78.3254 30.8432 78.3227 30.9196 78.3119 31.0057C78.3011 31.0919 78.2998 31.1696 78.3052 31.2377L78.3402 31.6975C78.3847 32.2781 78.3456 32.6574 78.2256 32.8379C78.1056 33.0199 77.7632 33.1324 77.197 33.1783C76.2992 33.2505 75.4 33.3158 74.5008 33.37C73.6016 33.4255 72.7362 33.4866 71.9044 33.5547C71.2061 33.6117 70.7491 33.545 70.5334 33.3575C70.3177 33.1699 70.1856 32.7351 70.133 32.0531L68.2659 7.52034C68.2376 7.14528 68.212 6.71883 68.1931 6.24099C68.1729 5.76314 68.1823 5.35058 68.2241 5.00469L68.2012 4.6977C68.1162 3.57393 68.1756 2.71964 68.3805 2.13761C68.5854 1.55558 69.0491 1.20136 69.7717 1.07356L75.8732 0.580433C76.3356 0.542927 76.651 0.638775 76.8182 0.863808C76.9854 1.09023 77.0663 1.39305 77.0622 1.7695L77.1121 5.05609C77.0892 5.6409 77.0784 6.25904 77.0784 6.91053C77.0784 7.56201 77.0946 8.33296 77.1296 9.22059L77.3399 11.9807L77.4855 11.9182L77.4842 11.9168Z" fill="#F36D3B"/>
<path d="M163.357 6.76462C163.64 6.90769 164.072 7.05355 164.655 7.20218C164.744 7.28414 164.938 7.34387 165.233 7.38554C165.759 7.45777 166.313 7.44805 166.894 7.35637C167.475 7.26469 167.788 7.16884 167.835 7.07161C167.993 6.36873 168.126 5.66307 168.235 4.95463C168.345 4.24619 168.444 3.53498 168.537 2.82376C168.638 2.04448 168.261 1.5958 167.408 1.47912L164.048 1.06795C163.381 1.04572 163.009 1.33882 162.929 1.94863C162.812 3.10436 162.73 3.99893 162.681 4.62958C162.633 5.26162 162.662 5.73947 162.772 6.06451C162.879 6.38956 163.076 6.62432 163.358 6.76601L163.357 6.76462Z" fill="#6699B1"/>
<path d="M155.613 5.69784C155.896 5.84092 156.329 5.98677 156.911 6.13541C157.002 6.21736 157.194 6.27849 157.49 6.31877C158.015 6.391 158.568 6.38128 159.151 6.2896C159.732 6.19792 160.044 6.10207 160.092 6.00483C160.193 5.74368 160.305 5.19916 160.429 4.36987C160.553 3.54197 160.674 2.67101 160.793 1.75699C160.894 0.977707 160.516 0.52903 159.663 0.412346C159.037 0.326222 158.446 0.253989 157.885 0.192869C157.323 0.133138 156.797 0.0692404 156.303 0.00117485C155.636 -0.0210506 155.264 0.272049 155.184 0.88186C155.067 2.03759 154.985 2.93216 154.936 3.56281C154.888 4.19485 154.918 4.67269 155.027 4.99774C155.135 5.32279 155.33 5.55755 155.613 5.69923V5.69784Z" fill="#6699B1"/>
<path d="M171.262 10.4402C170.992 10.1957 170.642 10.0013 170.208 9.85541C169.775 9.70955 169.302 9.61093 168.791 9.55675C168.279 9.50397 167.809 9.44701 167.382 9.38867C166.659 9.28866 166.097 9.23726 165.696 9.23448C165.294 9.23031 164.987 9.2831 164.771 9.39145C164.556 9.4998 164.408 9.6776 164.325 9.92486C164.242 10.1721 164.156 10.5138 164.066 10.95L164.046 11.1028L163.543 10.7236C163.137 10.4958 162.719 10.2999 162.289 10.1374C161.859 9.97487 161.363 9.85541 160.805 9.77762C159.128 9.54703 157.564 9.73594 156.113 10.3458C154.661 10.957 153.374 11.8557 152.25 13.0462C151.124 14.2352 150.188 15.6507 149.44 17.2884C148.692 18.9276 148.197 20.6778 147.956 22.5406C147.775 23.9297 147.808 25.2868 148.054 26.6148C148.3 27.9414 148.72 29.1555 149.314 30.2542C149.907 31.353 150.666 32.2684 151.593 32.9991C152.519 33.7297 153.574 34.177 154.757 34.3409C155.052 34.3812 155.41 34.4048 155.828 34.4104C156.245 34.416 156.684 34.3909 157.142 34.3326C157.602 34.2757 158.048 34.1812 158.483 34.052C158.917 33.9228 159.284 33.7409 159.583 33.5047L159.961 33.2977L159.954 33.3477L160.789 33.1005C160.771 33.2366 160.735 33.3783 160.683 33.5255C160.631 33.6728 160.598 33.7978 160.585 33.8992C160.536 34.2729 160.594 34.5382 160.758 34.6979C160.921 34.8591 161.184 34.9633 161.545 35.0133L162.532 35.1494C163.888 35.2675 164.926 35.3244 165.647 35.3203C166.367 35.3161 166.905 35.1661 167.262 34.8702C167.618 34.5743 167.869 34.1256 168.014 33.5255C168.159 32.9241 168.335 32.0878 168.541 31.0113L168.706 29.7417C168.899 28.7679 169.074 27.8011 169.233 26.8398C169.391 25.8786 169.553 24.8923 169.718 23.8811L171.637 11.4223C171.656 11.0111 171.532 10.6833 171.262 10.4402ZM165.284 20.8334C165.063 21.0515 164.803 21.2849 164.504 21.5363C164.205 21.7877 163.895 22.0405 163.574 22.2975C163.253 22.5531 162.981 22.7684 162.758 22.9434C162.929 23.1601 163.146 23.4227 163.411 23.7338C163.675 24.045 163.932 24.3548 164.183 24.6645C164.434 24.9743 164.645 25.2577 164.818 25.5174C164.992 25.7758 165.073 25.955 165.063 26.0522C165.055 26.1356 164.949 26.2731 164.744 26.4634C164.54 26.6537 164.295 26.8648 164.012 27.0968C163.727 27.3288 163.444 27.5608 163.16 27.7914C162.875 28.0233 162.644 28.222 162.462 28.3859C162.266 28.5637 162.092 28.6443 161.944 28.6276C161.794 28.6123 161.634 28.4956 161.464 28.2803L159.419 25.6661L156.945 27.7594C156.644 28.0108 156.441 28.1303 156.333 28.1192C156.293 28.115 156.204 28.0414 156.066 27.8997C155.929 27.758 155.766 27.5775 155.574 27.3594C155.383 27.1413 155.187 26.901 154.986 26.6398C154.785 26.3787 154.598 26.1314 154.421 25.9008C154.245 25.6702 154.105 25.4674 153.998 25.2938C153.892 25.1201 153.842 25.0049 153.847 24.9493C153.857 24.8521 153.973 24.6937 154.192 24.477C154.413 24.2603 154.68 24.0228 154.994 23.7658C155.309 23.5088 155.633 23.2504 155.968 22.9879C156.302 22.7254 156.589 22.4948 156.829 22.2947C156.647 22.0628 156.419 21.7919 156.148 21.4807C155.877 21.1696 155.62 20.8556 155.377 20.5403C155.133 20.225 154.926 19.9402 154.752 19.6888C154.578 19.4374 154.496 19.2623 154.505 19.1637C154.51 19.1082 154.583 19.0026 154.722 18.847C154.861 18.6914 155.036 18.5192 155.246 18.3303C155.458 18.14 155.687 17.9413 155.934 17.7343C156.181 17.5274 156.419 17.3371 156.65 17.1634C156.88 16.9898 157.08 16.8481 157.248 16.7384C157.417 16.6286 157.522 16.5772 157.563 16.5814C157.657 16.5911 157.811 16.7134 158.021 16.9481C158.231 17.1829 158.46 17.4621 158.71 17.7843C158.959 18.108 159.214 18.4428 159.474 18.7887C159.734 19.1345 159.957 19.4235 160.14 19.6541C160.365 19.4652 160.635 19.229 160.952 18.9442C161.268 18.6595 161.58 18.3914 161.886 18.1413C162.192 17.8913 162.468 17.676 162.712 17.4968C162.956 17.3176 163.119 17.2329 163.202 17.2412C163.27 17.2343 163.339 17.2732 163.407 17.3579C163.474 17.4426 163.575 17.5635 163.71 17.7191L165.43 19.8749C165.577 20.0597 165.643 20.2153 165.631 20.3417C165.62 20.4542 165.504 20.6181 165.283 20.8348L165.284 20.8334Z" fill="#6699B1"/>
<path d="M217.201 52.3158C216.992 53.3798 215.71 55.3343 215.025 56.2205C214.512 56.8845 212.875 58.6098 212.124 58.8362C211.007 59.1723 210.082 57.9166 210.682 56.8928C210.922 56.4844 211.832 55.9302 212.222 55.5343C212.886 54.8634 213.51 54.0355 214.017 53.2312C214.588 52.3255 215.094 50.2363 216.551 50.9864C216.976 51.2059 217.294 51.8352 217.201 52.3144V52.3158Z" fill="#DC4B89"/>
<path d="M218.004 55.0537C218.859 54.8217 219.545 55.7524 219.234 56.5636C218.881 57.4832 216.216 61.531 215.275 59.3765C214.917 58.557 216.168 57.5249 216.679 56.8345C217.016 56.3789 217.534 55.1815 218.004 55.0537Z" fill="#DC4B89"/>
<path d="M218.057 22.4211C217.641 22.0405 217.128 21.7669 216.52 21.5988C215.848 21.4127 215.202 21.421 214.583 21.621C213.964 21.821 213.399 22.2419 212.891 22.8795C212.325 22.5462 211.752 22.2739 211.172 22.06C210.591 21.8461 209.982 21.6516 209.342 21.4752C207.612 20.9973 205.99 20.8945 204.476 21.1668C202.964 21.439 201.597 21.9725 200.378 22.7684C199.158 23.5644 198.129 24.5812 197.294 25.8175C196.456 27.0551 195.844 28.4165 195.459 29.9014C195.15 31.0905 195.053 32.3823 195.173 33.777C195.29 35.1716 195.627 36.5204 196.181 37.8234C196.736 39.1264 197.542 40.2863 198.599 41.3031C199.656 42.3213 200.97 43.045 202.539 43.4784C203.179 43.6548 203.797 43.7548 204.393 43.7784C204.987 43.802 205.567 43.784 206.132 43.727L206.411 43.6451L206.881 43.6159C206.718 44.2438 206.494 44.8717 206.211 45.5009C205.927 46.1302 205.56 46.683 205.11 47.1609C204.66 47.6373 204.131 47.9874 203.525 48.2096C202.918 48.4305 202.213 48.4319 201.412 48.2096C200.611 47.9888 200.015 47.6387 199.625 47.1595C199.234 46.6803 198.934 46.1816 198.725 45.6634C198.516 45.1453 198.321 44.6758 198.139 44.2549C197.956 43.8326 197.689 43.5728 197.337 43.4756C196.791 43.3256 196.163 43.2047 195.448 43.1131C194.732 43.0214 194.038 42.9894 193.361 43.0144C192.685 43.0408 192.099 43.1436 191.606 43.3256C191.113 43.5076 190.813 43.7965 190.711 44.1924C190.668 44.3577 190.65 44.4938 190.657 44.6022C190.681 46.0941 190.929 47.4818 191.404 48.7625C191.877 50.0419 192.515 51.192 193.315 52.2088C194.115 53.2257 195.065 54.098 196.163 54.8259C197.261 55.5538 198.45 56.0941 199.732 56.4484C201.622 56.9706 203.406 57.0457 205.08 56.6776C206.756 56.3081 208.273 55.5954 209.629 54.537C210.985 53.4785 212.165 52.1144 213.165 50.4447C214.165 48.775 214.932 46.9178 215.465 44.8703C216.314 41.6017 217.028 38.3582 217.608 35.1397C218.188 31.9211 218.536 28.6998 218.653 25.4771L218.745 24.3353C218.703 23.4393 218.474 22.8004 218.057 22.4211ZM213.455 31.4669C213.421 31.5739 213.274 31.71 213.014 31.8739C212.754 32.0392 212.452 32.2115 212.108 32.392C211.764 32.5726 211.408 32.7532 211.043 32.9338C210.676 33.1144 210.368 33.2658 210.113 33.388C210.235 33.6367 210.394 33.9409 210.589 34.302C210.783 34.6632 210.971 35.023 211.153 35.3786C211.335 35.7356 211.484 36.0592 211.601 36.3496C211.717 36.6399 211.761 36.833 211.732 36.926C211.706 37.0066 211.574 37.1177 211.335 37.2594C211.097 37.4011 210.815 37.5553 210.49 37.7192C210.165 37.8845 209.84 38.0484 209.516 38.2137C209.191 38.379 208.922 38.5221 208.712 38.643C208.484 38.7735 208.298 38.8152 208.157 38.768C208.014 38.7194 207.88 38.5721 207.758 38.3235L206.292 35.3244L203.446 36.8344C203.101 37.0149 202.877 37.0872 202.774 37.0525C202.735 37.0399 202.663 36.9483 202.558 36.7802C202.453 36.6121 202.329 36.401 202.187 36.1454C202.044 35.8912 201.903 35.6133 201.76 35.3147C201.617 35.016 201.484 34.7341 201.36 34.4701C201.234 34.2062 201.137 33.9784 201.07 33.7853C201.001 33.5922 200.975 33.4686 200.993 33.4158C201.023 33.3227 201.167 33.1936 201.427 33.0282C201.687 32.8643 201.997 32.6907 202.356 32.5073C202.714 32.3254 203.085 32.142 203.467 31.9586C203.848 31.7753 204.176 31.6114 204.451 31.4669C204.32 31.2002 204.153 30.8863 203.952 30.5223C203.751 30.1598 203.564 29.7972 203.39 29.4347C203.216 29.0735 203.07 28.7512 202.952 28.4665C202.833 28.1831 202.789 27.9942 202.818 27.8997C202.836 27.8455 202.927 27.758 203.095 27.6372C203.262 27.5163 203.468 27.3844 203.713 27.2455C203.959 27.1052 204.223 26.9607 204.507 26.8121C204.792 26.6634 205.063 26.5287 205.324 26.4092C205.584 26.2898 205.808 26.1939 205.996 26.1231C206.183 26.0522 206.296 26.0244 206.335 26.0369C206.426 26.0675 206.55 26.2203 206.707 26.494C206.864 26.769 207.032 27.0913 207.21 27.4608C207.388 27.8303 207.569 28.2137 207.754 28.6082C207.938 29.0027 208.096 29.3333 208.227 29.5986C208.484 29.4638 208.797 29.2902 209.165 29.0804C209.533 28.8707 209.892 28.6762 210.242 28.4984C210.593 28.3206 210.907 28.1692 211.182 28.047C211.457 27.9247 211.633 27.8761 211.712 27.9025C211.78 27.9108 211.84 27.9636 211.887 28.0609C211.935 28.1581 212.01 28.2984 212.111 28.479L213.352 30.9599C213.457 31.1724 213.491 31.3391 213.453 31.46L213.455 31.4669Z" fill="#DC4B89"/>
<path d="M113.642 6.28131C113.342 6.07572 112.97 5.93126 112.521 5.84514C112.074 5.7604 111.592 5.72567 111.079 5.74234C110.564 5.7604 110.092 5.76735 109.661 5.76735C108.93 5.76735 108.366 5.79235 107.969 5.84375C107.571 5.89514 107.272 5.9896 107.074 6.12573C106.874 6.26325 106.75 6.45911 106.7 6.71471C106.65 6.97169 106.608 7.32174 106.576 7.76625V7.92044L106.029 7.61206C105.597 7.4412 105.158 7.30507 104.71 7.20228C104.263 7.09949 103.756 7.04809 103.192 7.04809C101.501 7.04809 99.9745 7.44954 98.6156 8.25243C97.2554 9.05533 96.0947 10.1235 95.1335 11.4571C94.1709 12.7906 93.4254 14.32 92.8943 16.0452C92.3631 17.7719 92.0989 19.5749 92.0989 21.453C92.0989 22.8546 92.3052 24.1964 92.7204 25.4772C93.1342 26.7593 93.7072 27.9039 94.4365 28.9124C95.1658 29.9209 96.0367 30.7238 97.0491 31.3225C98.0602 31.9212 99.1643 32.2198 100.357 32.2198C100.655 32.2198 101.011 32.1948 101.426 32.1421C101.84 32.0907 102.272 32.0059 102.721 31.8865C103.168 31.767 103.6 31.6128 104.015 31.4253C104.429 31.2378 104.768 31.0072 105.035 30.7335L105.383 30.4779V30.5293L106.178 30.1709C106.178 30.3071 106.161 30.4529 106.129 30.6071C106.095 30.7599 106.079 30.8891 106.079 30.9919C106.079 31.3683 106.169 31.6239 106.352 31.7601C106.534 31.8962 106.808 31.9656 107.173 31.9656H108.168C109.528 31.8976 110.564 31.8114 111.278 31.71C111.991 31.6073 112.505 31.3864 112.821 31.0433C113.135 30.7016 113.326 30.2223 113.392 29.6083C113.458 28.993 113.524 28.1387 113.592 27.0455V25.7633C113.658 24.7729 113.708 23.7894 113.741 22.8157C113.774 21.8419 113.807 20.8418 113.841 19.8166L114.139 7.20506C114.105 6.79528 113.939 6.4869 113.642 6.2827V6.28131ZM107.713 20.2764C108.006 20.5584 108.292 20.839 108.573 21.121C108.852 21.403 109.092 21.6627 109.29 21.9017C109.488 22.1406 109.586 22.3101 109.586 22.4087C109.586 22.4934 109.495 22.6407 109.31 22.8518C109.125 23.0629 108.904 23.2991 108.644 23.5588C108.384 23.82 108.125 24.0798 107.866 24.3395C107.606 24.5993 107.394 24.8215 107.231 25.0049C107.053 25.2021 106.89 25.3008 106.739 25.3008C106.588 25.3008 106.418 25.2021 106.227 25.0049L103.933 22.6198L101.68 24.9618C101.406 25.2438 101.215 25.3841 101.107 25.3841C101.066 25.3841 100.971 25.3216 100.82 25.1938C100.669 25.0674 100.488 24.9049 100.276 24.7076C100.065 24.5104 99.8464 24.2923 99.6213 24.0534C99.3962 23.8144 99.1845 23.5894 98.9863 23.3783C98.7882 23.1671 98.6277 22.981 98.5051 22.8185C98.3824 22.6573 98.3204 22.5476 98.3204 22.4906C98.3204 22.392 98.4188 22.2239 98.617 21.9836C98.8151 21.7447 99.0578 21.4808 99.3436 21.1918C99.6307 20.9043 99.9273 20.6112 100.235 20.3153C100.542 20.0194 100.805 19.7597 101.023 19.5346C100.818 19.3235 100.566 19.0776 100.266 18.7956C99.9651 18.515 99.6779 18.2289 99.4056 17.9414C99.1319 17.6524 98.896 17.3927 98.6992 17.1607C98.501 16.9287 98.4026 16.7634 98.4026 16.6648C98.4026 16.6078 98.4633 16.4953 98.5873 16.3272C98.71 16.1578 98.8664 15.9688 99.0578 15.7577C99.2492 15.5466 99.4568 15.3257 99.6833 15.0923C99.9084 14.8603 100.127 14.645 100.338 14.4478C100.55 14.2505 100.735 14.0894 100.891 13.9616C101.048 13.8338 101.147 13.7713 101.188 13.7713C101.283 13.7713 101.447 13.8769 101.68 14.088C101.912 14.2992 102.168 14.552 102.448 14.8478C102.729 15.1437 103.014 15.4493 103.308 15.766C103.602 16.0827 103.852 16.3467 104.057 16.5578C104.261 16.3467 104.507 16.0827 104.794 15.766C105.081 15.4493 105.364 15.1507 105.645 14.8687C105.925 14.5881 106.177 14.345 106.402 14.1408C106.627 13.9366 106.781 13.8352 106.863 13.8352C106.932 13.8213 107.003 13.8533 107.078 13.931C107.153 14.0088 107.265 14.1172 107.416 14.2575L109.341 16.2203C109.506 16.3897 109.586 16.537 109.586 16.6634C109.586 16.7759 109.488 16.9523 109.29 17.1912C109.092 17.4302 108.856 17.6913 108.583 17.9719C108.311 18.2525 108.027 18.5387 107.734 18.8262C107.44 19.1151 107.191 19.3568 106.986 19.5541C107.177 19.7513 107.419 19.9903 107.713 20.2723V20.2764Z" fill="#F8D86A"/>
<path d="M67.4463 29.5514L67.3492 28.2734C67.3398 27.2802 67.3155 26.2968 67.2737 25.323C67.2319 24.3492 67.1901 23.3505 67.1456 22.3253L66.4864 9.72904C66.4217 9.32343 66.233 9.02894 65.9202 8.84975C65.6075 8.66917 65.2246 8.55526 64.7703 8.50525C64.3173 8.45663 63.8347 8.4608 63.3238 8.51914C62.8115 8.57749 62.341 8.62471 61.9123 8.65944C61.1843 8.71778 60.6249 8.78863 60.2312 8.87197C59.8376 8.95532 59.5478 9.07339 59.3604 9.2248C59.1716 9.3776 59.0638 9.58319 59.0328 9.84295C59.0031 10.1027 58.9869 10.4555 58.9883 10.9L59.0004 11.0528L58.4315 10.7903C57.988 10.6556 57.5404 10.5542 57.0861 10.4875C56.6318 10.4208 56.1236 10.4111 55.5614 10.4569C53.875 10.5931 52.384 11.1167 51.0898 12.0266C49.7943 12.9378 48.7185 14.095 47.8611 15.5021C47.0024 16.9079 46.3755 18.4942 45.9778 20.257C45.5801 22.0211 45.4521 23.8394 45.595 25.7133C45.7015 27.1108 46.0088 28.4318 46.5197 29.675C47.0307 30.9196 47.6872 32.0156 48.492 32.9616C49.2955 33.9076 50.2243 34.6383 51.2785 35.1536C52.3327 35.669 53.4544 35.8773 54.6447 35.7815C54.9427 35.7579 55.2959 35.7037 55.7057 35.6189C56.1155 35.5342 56.5388 35.4148 56.9756 35.2592C57.4137 35.1036 57.8303 34.9161 58.2307 34.6952C58.6297 34.4743 58.9506 34.2174 59.1946 33.9229L59.5221 33.6395L59.5262 33.6909L60.2919 33.2686C60.3027 33.4047 60.296 33.5506 60.2757 33.7076C60.2542 33.8631 60.2474 33.9923 60.2555 34.0951C60.2838 34.4702 60.3944 34.7188 60.5871 34.8397C60.7786 34.9619 61.0563 35.0078 61.4216 34.9786L62.4138 34.898C63.7646 34.7202 64.7905 34.5521 65.4942 34.3924C66.1966 34.2326 66.6927 33.9701 66.9812 33.6034C67.2697 33.238 67.4233 32.7449 67.4422 32.1268C67.4611 31.5072 67.4624 30.6516 67.4463 29.5556V29.5514ZM60.8541 23.0796C61.148 23.3616 61.4337 23.6422 61.7142 23.9242C61.9932 24.2062 62.2332 24.4659 62.4313 24.7048C62.6295 24.9438 62.7279 25.1132 62.7279 25.2119C62.7279 25.2966 62.6362 25.4439 62.4516 25.655C62.2669 25.8661 62.0458 26.1023 61.7856 26.362C61.5254 26.6232 61.2666 26.8829 61.0078 27.1427C60.7476 27.4025 60.5359 27.6247 60.3728 27.8081C60.1948 28.0053 60.0317 28.104 59.8807 28.104C59.7298 28.104 59.5599 28.0053 59.3685 27.8081L57.074 25.423L54.8213 27.765C54.5477 28.047 54.3562 28.1873 54.2484 28.1873C54.2079 28.1873 54.1122 28.1248 53.9612 27.997C53.8103 27.8706 53.6296 27.7081 53.418 27.5108C53.2063 27.3136 52.9879 27.0955 52.7628 26.8566C52.5376 26.6176 52.326 26.3926 52.1278 26.1815C51.9297 25.9703 51.7692 25.7842 51.6466 25.6217C51.5239 25.4605 51.4619 25.3508 51.4619 25.2938C51.4619 25.1952 51.5603 25.0271 51.7585 24.7868C51.9566 24.5479 52.1993 24.284 52.4851 23.995C52.7722 23.7075 53.0688 23.4144 53.3762 23.1185C53.6835 22.8226 53.9464 22.5629 54.1648 22.3378C53.9599 22.1267 53.7078 21.8808 53.4072 21.5988C53.1066 21.3182 52.8194 21.0321 52.5471 20.7445C52.2734 20.4556 52.0375 20.1959 51.8407 19.9639C51.6425 19.7319 51.5441 19.5666 51.5441 19.468C51.5441 19.411 51.6048 19.2985 51.7288 19.1304C51.8515 18.961 52.0078 18.772 52.1993 18.5609C52.3907 18.3498 52.5983 18.1289 52.8248 17.8955C53.0499 17.6635 53.2683 17.4482 53.48 17.251C53.6916 17.0537 53.8763 16.8926 54.0327 16.7648C54.1891 16.637 54.2888 16.5745 54.3293 16.5745C54.425 16.5745 54.5881 16.6801 54.8213 16.8912C55.0532 17.1023 55.3093 17.3552 55.5897 17.651C55.8702 17.9469 56.1559 18.2525 56.4498 18.5692C56.7437 18.8859 56.9931 19.1499 57.198 19.361C57.4029 19.1499 57.6483 18.8859 57.9354 18.5692C58.2226 18.2525 58.5057 17.9539 58.7861 17.6719C59.0665 17.3913 59.3186 17.1482 59.5437 16.944C59.7689 16.7398 59.9225 16.6384 60.0048 16.6384C60.0735 16.6245 60.145 16.6564 60.2191 16.7342C60.2946 16.812 60.4065 16.9204 60.5575 17.0607L62.4826 19.0235C62.647 19.1929 62.7279 19.3402 62.7279 19.4666C62.7279 19.5791 62.6295 19.7555 62.4313 19.9944C62.2332 20.2334 61.9973 20.4945 61.7249 20.7751C61.4513 21.0571 61.1682 21.3419 60.8756 21.6294C60.5817 21.9183 60.3323 22.16 60.1274 22.3573C60.3189 22.5545 60.5602 22.7935 60.8541 23.0754V23.0796Z" fill="#99BC5C"/>
</svg>
