<svg width="103" height="15" viewBox="0 0 103 15" fill="none" xmlns="http://www.w3.org/2000/svg">
<g clip-path="url(#clip0_307_966)">
<path d="M50.1387 14.1281C47.8588 15.1368 45.3228 15.2733 43.0144 14.5191C40.0768 13.5601 38.0499 11.0213 37.9772 7.97661C37.9139 5.39436 39.3369 3.05109 41.5598 1.69479C44.3141 0.0188165 48.4944 -0.164299 51.3561 1.25097C53.6518 2.38691 55.0558 4.61534 54.9578 7.18517C54.8408 10.1833 52.9751 12.8711 50.1419 14.125L50.1387 14.1281ZM44.5006 12.1541C45.9362 13.1008 47.7671 12.5731 48.6588 11.2075C49.3608 10.1368 49.6201 8.92012 49.7498 7.64762C49.9616 5.52782 49.4272 2.6321 46.692 2.66934C43.9567 2.70659 43.2484 5.48747 43.1567 7.59486C43.0966 8.97288 43.1409 11.2603 44.5006 12.1572V12.1541Z" fill="white"/>
<path d="M69.9779 14.4726L58.4361 14.4912L58.7682 9.37019L58.9547 6.38137L59.3943 0.205078H64.2639L63.426 12.0642L70.7242 11.4962L69.9779 14.4726Z" fill="white"/>
<path d="M85.681 11.5021L84.9253 14.4816L73.3898 14.4878L74.3448 0.214041L79.224 0.210938L78.3923 12.07L85.681 11.5021Z" fill="white"/>
<path d="M98.0766 13.8762C94.8512 15.2698 90.6614 14.9563 88.1253 12.461C86.6297 10.9898 85.8296 9.01901 86.0383 6.91784C86.3198 4.0904 88.2297 1.78438 90.9112 0.744651C93.1753 -0.133686 95.648 -0.229899 97.9943 0.415663C101.096 1.27227 103.206 3.86693 102.984 7.10095C102.782 10.0649 100.888 12.6596 98.0797 13.8731L98.0766 13.8762ZM94.3358 12.3244C95.4615 12.2468 96.2994 11.5951 96.8402 10.6919C97.9596 8.81728 98.4339 4.58698 96.6251 3.02584C95.8694 2.37407 94.848 2.21268 93.8267 2.50753C90.9902 3.32069 90.6677 8.76141 91.7175 10.8905C92.2013 11.8713 93.1689 12.4082 94.3421 12.3275L94.3358 12.3244Z" fill="white"/>
<path d="M35.2957 4.14021C35.5012 7.00489 33.2308 9.01917 30.7485 10.0899C28.8102 10.9248 26.7548 11.3221 24.5856 11.3407L24.3421 14.4723L19.5198 14.4909L20.4874 0.245117L29.7272 0.282361C31.1628 0.288568 32.4687 0.766532 33.6166 1.50831C34.5146 2.14766 35.2135 3.02289 35.2957 4.13711V4.14021ZM30.1319 5.32581C30.3722 4.36988 29.9137 3.51327 29.0536 3.1129C27.9248 2.58528 26.4797 2.64425 25.1547 2.62873L24.7215 9.00365C26.7927 8.99434 29.6513 7.54803 30.1288 5.32581H30.1319Z" fill="white"/>
<path d="M10.1852 12.0948L5.07838 12.0544C4.89497 12.0544 4.49655 11.893 4.38271 12.1134C3.99061 12.8676 3.77558 13.6683 3.42142 14.4846L0 14.4784L6.80806 0.210831L11.3109 0.195312L16.1616 14.4908H10.884L10.1789 12.0916L10.1852 12.0948ZM9.43579 9.36663L7.69978 3.21518L5.15427 10.0277L9.43579 9.36663Z" fill="white"/>
</g>
<defs>
<clipPath id="clip0_307_966">
<rect width="103" height="15" fill="white"/>
</clipPath>
</defs>
</svg>
