<svg width="136" height="29" viewBox="0 0 136 29" fill="none" xmlns="http://www.w3.org/2000/svg">
<g clip-path="url(#clip0_307_1013)">
<path d="M9.85774 21.5494C8.92578 19.3636 9.03735 16.7328 9.95946 14.6087C10.7963 12.6763 12.5945 11.3381 14.7439 11.2862L19.4628 11.1693C19.535 9.85388 19.4037 8.34038 18.3864 7.52842C17.1198 6.52159 15.5446 6.54757 13.7201 6.46313L13.661 3.8681C15.2165 3.7934 16.6571 3.65699 18.1141 4.14417C20.1946 4.83921 22.2127 6.63527 22.2816 8.92175C22.3932 12.4976 22.3932 15.9891 22.2849 19.5065C22.1766 23.0629 19.1773 25.3299 15.84 25.2714C13.2049 25.2259 10.98 24.1931 9.85774 21.5591V21.5494ZM19.5317 18.5776L19.4956 14.0371L15.5282 14.0468C13.241 14.0533 12.0465 16.0313 12.145 18.1229C12.204 19.4123 12.3681 20.6497 13.1885 21.4324C14.0909 22.2964 15.397 22.5205 16.6374 22.2639C18.4586 21.8904 19.5481 20.5166 19.5317 18.5776Z" fill="white"/>
<path d="M11.7446 6.36264C9.60834 6.49905 6.36946 7.00247 6.3629 9.80211L6.33008 25.1319H3.37014L3.33732 9.47733C3.33076 7.11614 1.8475 5.22915 0 3.89104C1.89673 3.69616 3.45874 4.65103 4.92559 5.84624C6.78622 4.0924 9.16533 3.42335 11.7315 3.92351L11.7446 6.36264Z" fill="white"/>
<path d="M116.678 19.5779L117.938 19.7988C118.234 19.8507 118.037 20.9323 117.728 20.9323L114.25 20.9063C114.053 20.9063 113.781 20.1073 113.948 20.0034L115.008 19.3376L115.1 15.8559C115.113 15.3687 114.66 14.3294 114.247 14.128C113.676 13.8487 112.064 14.4821 112.012 15.1219C111.897 16.6094 111.92 18.3113 111.976 19.6851L113.134 19.7663C113.384 19.7825 113.367 20.8478 113.118 20.8608C112.068 20.9225 110.102 20.9388 108.94 20.9225C108.839 20.6822 108.694 19.8572 108.917 19.7955L110.122 19.4675L110.151 14.1021L108.963 13.9819C108.737 13.9592 108.455 13.2544 108.632 13.0465C109.292 12.2703 111.333 12.1241 112.107 13.2186C113.525 12.1209 115.248 12.1599 116.298 13.4687L118.687 12.4749C119.12 12.2963 120.291 12.5821 120.662 12.8646C121.079 13.1829 121.532 14.0826 121.538 14.7224L121.594 19.7013L122.72 19.7728C122.979 19.789 122.976 20.8024 122.72 20.8283C121.827 20.9128 120.098 20.955 119.044 20.9518C118.949 20.7017 118.815 19.9027 119.015 19.7988L119.937 19.3213C120.016 17.8761 120.216 15.8624 119.435 14.4626C118.854 13.42 116.668 14.5145 116.668 15.5766L116.678 19.5812V19.5779Z" fill="white"/>
<path d="M86.941 16.4375L86.5473 15.7912C86.4422 15.619 85.6252 15.8074 85.6219 16.0055L85.5726 19.5717L87.302 19.8217C87.4989 19.851 87.5284 20.6337 87.3545 20.7181C87.1806 20.8026 86.7442 20.9552 86.544 20.9552L82.5766 20.9293C82.4289 20.7896 82.278 19.9322 82.5274 19.8445L83.817 19.393L83.84 9.94829L82.5175 9.70471C82.2714 9.65924 82.2189 9.21428 82.173 8.62967L87.3578 8.57446C89.3595 8.55172 90.5934 10.1627 90.5639 11.9685C90.5376 13.5631 89.9305 14.609 88.4309 15.3949L90.8264 19.2956C90.9412 19.484 91.7452 19.5782 91.9552 19.6464C92.1653 19.7146 92.2145 20.5038 92.057 20.6564C91.5122 21.1858 89.6549 21.0429 89.1889 20.2505L86.9443 16.4375H86.941ZM85.6022 14.2679C86.4357 14.466 87.6761 14.1413 88.1257 13.6086C88.6901 12.9396 88.7426 11.4975 88.3521 10.8674C87.8796 10.1009 86.626 9.76642 85.612 10.0652L85.6022 14.2712V14.2679Z" fill="white"/>
<path d="M38.8403 16.1679C38.6499 15.8237 37.6162 15.6613 37.613 15.9503L37.5605 19.6399L39.234 19.7503C39.5753 19.773 39.4736 20.9358 39.1061 20.9358H34.5349C34.4102 20.7571 34.4036 19.89 34.6202 19.838L35.8016 19.5457L35.8147 9.88336L34.3971 9.68199C34.1181 9.64302 34.2231 8.60696 34.4889 8.60046C35.8016 8.56798 38.0658 8.56474 39.4145 8.60696C41.4294 8.67191 42.6501 10.1887 42.6206 11.975C42.5976 13.5209 41.9938 14.6122 40.5303 15.395C41.2062 16.6681 42.1218 18.3245 42.9028 19.3248C43.1555 19.6464 44.3664 19.903 44.2253 20.3706C44.0087 21.0884 42.8437 21.0527 42.2137 20.9195C41.7182 20.8156 41.0848 20.1985 40.7665 19.6236L38.8435 16.1647L38.8403 16.1679ZM37.5834 14.242C38.4891 14.5797 39.8247 14.1868 40.2841 13.4625C40.7665 12.7025 40.7501 11.4456 40.353 10.8707C39.7886 10.0555 38.476 9.77293 37.5769 10.0782V14.242H37.5834Z" fill="white"/>
<path d="M58.7723 14.6705C58.4934 13.839 56.3243 14.2255 56.1438 15.083C55.855 16.4601 55.9666 18.2431 56.0257 19.6494L57.276 19.8086C57.4991 19.8378 57.3744 20.5751 57.2661 20.8706L53.384 20.9746C53.2101 20.9778 52.5538 20.5361 52.6588 20.4127C53.7844 19.0973 54.2143 19.906 54.2143 19.1135V9.62335L52.9509 9.37002C52.7146 9.32455 52.5407 8.46387 52.7376 8.32746C53.3939 7.8825 54.8772 7.80131 55.8944 8.0384L56.0388 13.2479C57.4925 12.2476 60.0029 11.9228 60.4886 13.7708C60.9808 15.6351 60.5312 17.8339 60.7806 19.6722L61.8931 19.7469C62.1589 19.7664 62.149 20.8576 61.8865 20.8674L58.4409 20.9746C58.2112 20.9811 57.8765 20.0847 58.0766 19.971L59.0053 19.4448C59.2219 18.084 59.3171 16.2879 58.7723 14.6673V14.6705Z" fill="white"/>
<path d="M127.904 20.8607C126.451 20.734 124.715 21.7766 123.675 20.0422C123.32 19.4544 123.248 18.139 123.576 17.4147C123.904 16.6904 125.007 16.1481 125.913 16.1123L127.921 16.0311C127.845 15.2679 127.757 14.5988 127.58 14.2123C127.402 13.8258 126.267 13.657 125.985 13.8193L125.614 15.0081C125.522 15.3036 124.666 15.4075 124.377 15.2971C124.039 15.1704 123.593 14.2903 123.675 13.9233C123.976 12.6111 125.388 12.5657 126.543 12.4423C127.803 12.3091 129.26 12.8742 129.443 14.2838C129.667 15.9954 129.686 17.9214 129.736 19.6005L131.193 19.9773C130.69 21.7278 129.102 20.9549 127.911 20.8542L127.904 20.8607ZM127.698 17.5836C127.248 17.4862 126.188 17.4764 125.719 17.5966C125.181 17.733 124.977 18.7431 125.253 19.2075C125.466 19.5648 126.313 19.7597 126.69 19.542L127.744 18.9347C127.99 18.795 127.97 17.6388 127.694 17.5803L127.698 17.5836Z" fill="white"/>
<path d="M74.3694 20.8802C72.791 20.9549 71.2126 21.6532 70.2806 20.0358C69.6637 18.9672 69.7064 16.9958 71.3307 16.4112C72.1446 16.1189 73.3784 16.1189 74.3858 16.0247C74.5631 15.6804 74.4285 14.5404 74.1168 14.1961C73.805 13.8519 72.7845 13.5109 72.6105 13.9201C72.3972 14.417 72.1741 14.9464 71.9772 15.2484C71.7803 15.5505 71.0059 15.4466 70.7269 15.229C70.448 15.0114 70.1756 14.1604 70.32 13.8356C71.019 12.2604 74.0052 12.1435 75.2194 12.9327C75.705 13.2478 76.148 14.2838 76.171 14.9984L76.3154 19.5843C76.7879 19.6558 77.651 19.9513 77.7133 20.2306C77.2113 21.8481 75.3309 20.8315 74.3727 20.877L74.3694 20.8802ZM74.2447 17.5739C73.7624 17.4602 72.6302 17.5089 72.2496 17.6681C71.6851 17.9019 71.5014 18.7821 71.7573 19.2206C72.4465 20.4028 74.1726 19.0777 74.3596 18.9672C74.6123 18.8211 74.5204 17.6389 74.2447 17.5739Z" fill="white"/>
<path d="M49.2165 20.5589C47.8415 21.452 46.1483 21.3351 45.2754 20.2861C44.4025 19.237 44.4845 17.1357 45.9546 16.4796C46.821 16.0931 47.9531 16.1256 49.1509 16.0671C49.2723 15.7781 49.246 14.7875 49.0721 14.3945C48.8785 13.956 47.6512 13.4753 47.4543 13.9138C47.2016 14.4757 46.9916 14.9726 46.7914 15.2519C46.5913 15.5312 45.6429 15.3948 45.4099 15.1447C45.1769 14.8946 45.0161 14.0567 45.1868 13.7124C45.679 12.7251 47.0441 12.527 48.2353 12.449C52.0419 12.2054 50.7523 17.5254 51.1231 19.6462C51.5792 19.6138 52.6424 19.9548 52.5046 20.299C52.0353 21.4325 50.2272 21.5008 49.2132 20.5654L49.2165 20.5589ZM49.0327 17.6553C48.698 17.4117 47.6085 17.4864 47.0704 17.6358C46.6011 17.7657 46.3747 18.7856 46.6307 19.263C46.8308 19.643 47.6184 19.682 48.2123 19.5845C49.0295 19.4481 49.7678 18.1847 49.0327 17.6553Z" fill="white"/>
<path d="M105.091 20.7766C104.061 20.6531 102.627 21.7119 101.432 20.5752C100.612 19.7925 100.363 18.4511 100.848 17.4053C101.59 15.8009 103.667 16.1971 105.088 16.038C105.327 16.012 105.262 14.5407 104.497 13.8814C104.261 13.6768 103.388 13.6833 103.283 13.9853C103.149 14.3718 102.932 15.1026 102.633 15.265C102.335 15.4274 101.554 15.3137 101.281 15.1123C100.963 14.8785 100.848 13.9106 101.091 13.5858C102.354 11.9034 105.367 12.3257 106.108 13.0694C106.469 13.4299 106.83 14.414 106.834 15.0084L106.87 19.6366L108.061 19.799C108.301 19.8314 108.304 20.6272 108.091 20.8155C107.349 21.4651 105.846 20.8675 105.095 20.7766H105.091ZM104.94 17.5677C104.425 17.4508 103.198 17.4995 102.729 17.7236C102.325 17.912 102.272 19.052 102.574 19.3378C102.84 19.5846 103.66 19.747 103.992 19.5619L105.075 18.961C105.334 18.8181 105.245 17.6391 104.94 17.5677Z" fill="white"/>
<path d="M97.2254 20.6532C96.067 20.965 94.5706 21.5626 93.4024 20.4388C92.3063 19.3898 92.3949 16.9929 94.0587 16.3888C94.9972 16.0477 96.0768 16.1127 97.2779 16.0347C97.2385 15.6645 97.1105 14.7973 97.0252 14.3394C96.9399 13.8814 95.6798 13.456 95.4829 13.8619L94.8758 15.1318C94.7314 15.4307 93.8388 15.3592 93.5336 15.2228C93.1759 15.0636 92.9364 14.1315 93.1037 13.7742C93.6649 12.579 94.9184 12.5011 96.1228 12.4329C97.478 12.3582 98.8005 13.0955 98.8366 14.6317L98.9547 19.6496L100.143 19.773C100.376 19.7958 100.52 20.6467 100.31 20.7539C99.3748 21.2248 98.3017 21.4781 97.2254 20.6499V20.6532ZM97.0219 17.5807C96.5592 17.4151 95.2892 17.4995 94.7905 17.7171C94.3868 17.8925 94.3081 19.0942 94.6461 19.3475C95.6076 20.0621 96.6117 19.2858 97.1696 18.9481C97.419 18.7987 97.3336 17.6944 97.0186 17.5807H97.0219Z" fill="white"/>
<path d="M66.7038 12.6667L69.7425 12.54C70.6023 13.4884 69.2371 13.7417 69.0238 14.2906L66.4675 20.8383C66.3559 21.1241 65.4338 21.2085 65.1483 21.0137L62.5592 14.0438L61.5091 13.706C61.2597 13.6248 61.6076 12.6342 61.8701 12.6342L65.1779 12.6212C65.3551 12.6212 65.5782 13.417 65.4371 13.5209L64.4986 14.2127L65.9195 18.227L67.5734 14.073L66.6644 13.784C66.4117 13.7028 66.438 12.6797 66.7038 12.6667Z" fill="white"/>
<path d="M135.426 19.5132C135.675 19.5229 135.974 20.3739 135.767 20.4713L134.819 20.9195C134.422 21.1079 133.496 21.1306 133.096 20.965C132.564 20.7441 132.164 19.8899 132.167 19.2566L132.177 14.0828L130.93 13.9626C130.697 13.9399 130.713 13.2189 130.763 12.9688C130.805 12.7414 131.183 12.67 131.698 12.5531C133.148 12.2153 131.685 9.98402 133.696 10.0295L133.818 12.5336L135.81 12.6862C136.171 12.7155 135.967 13.9561 135.577 13.9789L133.759 14.0925L133.778 19.4515L135.422 19.5132H135.426Z" fill="white"/>
<path d="M29.0547 0H28.4903V29H29.0547V0Z" fill="white"/>
</g>
<defs>
<clipPath id="clip0_307_1013">
<rect width="136" height="29" fill="white"/>
</clipPath>
</defs>
</svg>
