<svg width="103" height="15" viewBox="0 0 103 15" fill="none" xmlns="http://www.w3.org/2000/svg">
<g clip-path="url(#clip0_307_886)">
<path d="M50.1387 14.1278C47.8588 15.1365 45.3228 15.2731 43.0144 14.5189C40.0768 13.5598 38.0499 11.0211 37.9772 7.97636C37.9139 5.39412 39.3369 3.05085 41.5598 1.69455C44.3141 0.0185724 48.4944 -0.164544 51.3561 1.25073C53.6518 2.38667 55.0558 4.6151 54.9578 7.18493C54.8408 10.1831 52.9751 12.8708 50.1419 14.1247L50.1387 14.1278ZM44.5006 12.1539C45.9362 13.1005 47.7671 12.5729 48.6588 11.2073C49.3608 10.1365 49.6201 8.91988 49.7498 7.64737C49.9616 5.52757 49.4272 2.63186 46.692 2.6691C43.9567 2.70634 43.2484 5.48722 43.1567 7.59461C43.0966 8.97264 43.1409 11.26 44.5006 12.157V12.1539Z" fill="white"/>
<path d="M69.9779 14.4724L58.4361 14.491L58.7682 9.36995L58.9547 6.38112L59.3943 0.204834H64.2639L63.426 12.0639L70.7242 11.496L69.9779 14.4724Z" fill="white"/>
<path d="M85.681 11.5022L84.9253 14.4817L73.3898 14.4879L74.3448 0.214163L79.224 0.21106L78.3923 12.0702L85.681 11.5022Z" fill="white"/>
<path d="M98.0766 13.8765C94.8512 15.27 90.6614 14.9566 88.1253 12.4612C86.6297 10.9901 85.8296 9.01926 86.0383 6.91808C86.3198 4.09064 88.2297 1.78462 90.9112 0.744895C93.1753 -0.133441 95.648 -0.229655 97.9943 0.415907C101.096 1.27252 103.206 3.86718 102.984 7.10119C102.782 10.0652 100.888 12.6599 98.0797 13.8734L98.0766 13.8765ZM94.3358 12.3247C95.4615 12.2471 96.2994 11.5953 96.8402 10.6921C97.9596 8.81752 98.4339 4.58723 96.6251 3.02609C95.8694 2.37432 94.848 2.21293 93.8267 2.50777C90.9902 3.32093 90.6677 8.76165 91.7175 10.8908C92.2013 11.8715 93.1689 12.4085 94.3421 12.3278L94.3358 12.3247Z" fill="white"/>
<path d="M35.2957 4.14034C35.5012 7.00502 33.2308 9.01929 30.7485 10.0901C28.8101 10.9249 26.7548 11.3222 24.5855 11.3408L24.3421 14.4724L19.5198 14.491L20.4874 0.245239L29.7272 0.282483C31.1628 0.288691 32.4687 0.766654 33.6166 1.50843C34.5146 2.14778 35.2135 3.02302 35.2957 4.13723V4.14034ZM30.1319 5.32593C30.3722 4.37001 29.9137 3.5134 29.0536 3.11302C27.9248 2.5854 26.4797 2.64437 25.1547 2.62885L24.7215 9.00377C26.7927 8.99446 29.6513 7.54816 30.1288 5.32593H30.1319Z" fill="white"/>
<path d="M10.1852 12.095L5.07838 12.0546C4.89497 12.0546 4.49655 11.8933 4.38271 12.1136C3.99061 12.8678 3.77558 13.6686 3.42142 14.4848L0 14.4786L6.80806 0.211075L11.3109 0.195557L16.1616 14.491H10.884L10.1789 12.0919L10.1852 12.095ZM9.43579 9.36688L7.69978 3.21542L5.15427 10.028L9.43579 9.36688Z" fill="white"/>
</g>
<defs>
<clipPath id="clip0_307_886">
<rect width="103" height="15" fill="white"/>
</clipPath>
</defs>
</svg>
