<svg width="32" height="32" viewBox="0 0 32 32" fill="none" xmlns="http://www.w3.org/2000/svg">
<path opacity="0.2" d="M6 9H14V23H6V9ZM23.83 4.79875C23.8034 4.66961 23.7515 4.547 23.6773 4.43799C23.6031 4.32899 23.5081 4.23572 23.3977 4.16358C23.2874 4.09143 23.1638 4.04183 23.0342 4.01761C22.9046 3.9934 22.7715 3.99506 22.6425 4.0225L16.7913 5.2725C16.5311 5.32998 16.3043 5.48802 16.1603 5.71214C16.0162 5.93626 15.9667 6.20825 16.0225 6.46875L17.4737 13.375L25.2812 11.6975L23.83 4.79875Z" fill="#013656"/>
<path d="M28.9562 24.3188L24.8075 4.59379C24.7538 4.33584 24.6497 4.09103 24.5012 3.87344C24.3526 3.65584 24.1626 3.46974 23.9419 3.32582C23.7212 3.18191 23.4742 3.08302 23.2152 3.03483C22.9562 2.98665 22.6902 2.99011 22.4325 3.04504L16.5812 4.30254C16.0637 4.41586 15.6118 4.72895 15.3239 5.17372C15.036 5.61848 14.9353 6.15893 15.0437 6.67754L19.1925 26.4025C19.285 26.8526 19.5295 27.257 19.8851 27.548C20.2407 27.8389 20.6856 27.9985 21.145 28C21.287 27.9998 21.4286 27.9847 21.5675 27.955L27.4188 26.6975C27.9369 26.5839 28.3893 26.2702 28.6772 25.8247C28.9652 25.3792 29.0655 24.8379 28.9562 24.3188ZM17 6.26879V6.25754L22.85 5.00754L23.2663 6.99129L17.4163 8.25004L17 6.26879ZM17.8275 10.2025L23.68 8.94629L24.0975 10.9338L18.25 12.1913L17.8275 10.2025ZM18.6575 14.1488L24.51 12.8913L26.1725 20.7963L20.32 22.0538L18.6575 14.1488ZM27 24.7425L21.15 25.9925L20.7337 24.0088L26.5837 22.75L27 24.7313V24.7425ZM13 4.00004H7C6.46957 4.00004 5.96086 4.21075 5.58579 4.58582C5.21071 4.96089 5 5.4696 5 6.00004V26C5 26.5305 5.21071 27.0392 5.58579 27.4142C5.96086 27.7893 6.46957 28 7 28H13C13.5304 28 14.0391 27.7893 14.4142 27.4142C14.7893 27.0392 15 26.5305 15 26V6.00004C15 5.4696 14.7893 4.96089 14.4142 4.58582C14.0391 4.21075 13.5304 4.00004 13 4.00004ZM7 6.00004H13V8.00004H7V6.00004ZM7 10H13V22H7V10ZM13 26H7V24H13V26Z" fill="#013656"/>
</svg>
