<svg width="32" height="32" viewBox="0 0 32 32" fill="none" xmlns="http://www.w3.org/2000/svg">
<path d="M22.53 16.53L12.53 26.53C12.3878 26.6625 12.1997 26.7346 12.0054 26.7311C11.8111 26.7277 11.6258 26.649 11.4883 26.5116C11.3509 26.3742 11.2722 26.1888 11.2688 25.9945C11.2654 25.8002 11.3375 25.6121 11.47 25.47L20.9387 16L11.47 6.52997C11.3375 6.38779 11.2654 6.19975 11.2688 6.00545C11.2722 5.81114 11.3509 5.62576 11.4883 5.48835C11.6258 5.35093 11.8111 5.27222 12.0054 5.26879C12.1997 5.26537 12.3878 5.33749 12.53 5.46997L22.53 15.47C22.6704 15.6106 22.7493 15.8012 22.7493 16C22.7493 16.1987 22.6704 16.3893 22.53 16.53Z" fill="#013656"/>
</svg>
