<svg width="32" height="32" viewBox="0 0 32 32" fill="none" xmlns="http://www.w3.org/2000/svg">
<path d="M20.53 25.47C20.6037 25.5386 20.6628 25.6214 20.7038 25.7134C20.7448 25.8054 20.7668 25.9047 20.7686 26.0054C20.7704 26.1061 20.7519 26.2062 20.7141 26.2996C20.6764 26.393 20.6203 26.4778 20.549 26.549C20.4778 26.6202 20.393 26.6764 20.2996 26.7141C20.2062 26.7518 20.1062 26.7703 20.0055 26.7686C19.9048 26.7668 19.8055 26.7447 19.7135 26.7038C19.6215 26.6628 19.5387 26.6037 19.47 26.53L9.47001 16.53C9.32956 16.3893 9.25067 16.1987 9.25067 16C9.25067 15.8012 9.32956 15.6106 9.47001 15.47L19.47 5.46997C19.6122 5.33749 19.8002 5.26537 19.9945 5.26879C20.1888 5.27222 20.3742 5.35093 20.5116 5.48835C20.649 5.62576 20.7278 5.81114 20.7312 6.00545C20.7346 6.19975 20.6625 6.38779 20.53 6.52997L11.0613 16L20.53 25.47Z" fill="#013656"/>
</svg>
