<svg width="32" height="32" viewBox="0 0 32 32" fill="none" xmlns="http://www.w3.org/2000/svg">
<path d="M26.53 20.53C26.3894 20.6704 26.1988 20.7493 26 20.7493C25.8013 20.7493 25.6107 20.6704 25.47 20.53L16 11.0612L6.53003 20.53C6.38785 20.6624 6.19981 20.7346 6.00551 20.7311C5.81121 20.7277 5.62582 20.649 5.48841 20.5116C5.35099 20.3742 5.27228 20.1888 5.26885 19.9945C5.26543 19.8002 5.33755 19.6121 5.47003 19.4699L15.47 9.46995C15.6107 9.3295 15.8013 9.25061 16 9.25061C16.1988 9.25061 16.3894 9.3295 16.53 9.46995L26.53 19.4699C26.6705 19.6106 26.7494 19.8012 26.7494 20C26.7494 20.1987 26.6705 20.3893 26.53 20.53Z" fill="#013656"/>
</svg>
