<svg width="24" height="25" viewBox="0 0 24 25" fill="none" xmlns="http://www.w3.org/2000/svg">
<path opacity="0.2" d="M22 2V7.58625C21.9999 7.85111 21.8947 8.10511 21.7075 8.2925L20 10V24H15V17C15 16.2044 14.6839 15.4413 14.1213 14.8787C13.5587 14.3161 12.7956 14 12 14C11.2044 14 10.4413 14.3161 9.87868 14.8787C9.31607 15.4413 9 16.2044 9 17V24H4V10L2.2925 8.2925C2.10532 8.10511 2.00012 7.85111 2 7.58625V2C2 1.73478 2.10536 1.48043 2.29289 1.29289C2.48043 1.10536 2.73478 1 3 1H6V5H10V1H14V5H18V1H21C21.2652 1 21.5196 1.10536 21.7071 1.29289C21.8946 1.48043 22 1.73478 22 2Z" fill="white"/>
<path d="M23 23H21V10.4137L22.4137 9C22.6003 8.81496 22.7482 8.59468 22.8488 8.35198C22.9494 8.10928 23.0008 7.84899 23 7.58625V2C23 1.46957 22.7893 0.960859 22.4142 0.585786C22.0391 0.210714 21.5304 0 21 0H18C17.7348 0 17.4804 0.105357 17.2929 0.292893C17.1054 0.48043 17 0.734784 17 1V4H15V1C15 0.734784 14.8946 0.48043 14.7071 0.292893C14.5196 0.105357 14.2652 0 14 0H10C9.73478 0 9.48043 0.105357 9.29289 0.292893C9.10536 0.48043 9 0.734784 9 1V4H7V1C7 0.734784 6.89464 0.48043 6.70711 0.292893C6.51957 0.105357 6.26522 0 6 0H3C2.46957 0 1.96086 0.210714 1.58579 0.585786C1.21071 0.960859 1 1.46957 1 2V7.58625C0.999161 7.84899 1.05056 8.10928 1.1512 8.35198C1.25184 8.59468 1.39972 8.81496 1.58625 9L3 10.4137V23H1C0.734784 23 0.48043 23.1054 0.292893 23.2929C0.105357 23.4804 0 23.7348 0 24C0 24.2652 0.105357 24.5196 0.292893 24.7071C0.48043 24.8946 0.734784 25 1 25H23C23.2652 25 23.5196 24.8946 23.7071 24.7071C23.8946 24.5196 24 24.2652 24 24C24 23.7348 23.8946 23.4804 23.7071 23.2929C23.5196 23.1054 23.2652 23 23 23ZM4.7075 9.2925L3 7.58625V2H5V5C5 5.26522 5.10536 5.51957 5.29289 5.70711C5.48043 5.89464 5.73478 6 6 6H10C10.2652 6 10.5196 5.89464 10.7071 5.70711C10.8946 5.51957 11 5.26522 11 5V2H13V5C13 5.26522 13.1054 5.51957 13.2929 5.70711C13.4804 5.89464 13.7348 6 14 6H18C18.2652 6 18.5196 5.89464 18.7071 5.70711C18.8946 5.51957 19 5.26522 19 5V2H21V7.58625L19.2925 9.2925C19.1997 9.38544 19.1261 9.49576 19.0759 9.61715C19.0257 9.73855 18.9999 9.86864 19 10V23H16V17C16 15.9391 15.5786 14.9217 14.8284 14.1716C14.0783 13.4214 13.0609 13 12 13C10.9391 13 9.92172 13.4214 9.17157 14.1716C8.42143 14.9217 8 15.9391 8 17V23H5V10C5.0001 9.86864 4.97432 9.73855 4.92414 9.61715C4.87395 9.49576 4.80033 9.38544 4.7075 9.2925ZM14 23H10V17C10 16.4696 10.2107 15.9609 10.5858 15.5858C10.9609 15.2107 11.4696 15 12 15C12.5304 15 13.0391 15.2107 13.4142 15.5858C13.7893 15.9609 14 16.4696 14 17V23Z" fill="white"/>
</svg>
