<svg width="32" height="32" viewBox="0 0 32 32" fill="none" xmlns="http://www.w3.org/2000/svg">
<path opacity="0.2" d="M27.1075 25.9463C26.5535 26.044 25.984 26.0068 25.4474 25.8377C24.9108 25.6686 24.4229 25.3727 24.025 24.975L18.7612 19H21.5C22.4491 19.001 23.3869 18.794 24.2473 18.3934C25.1077 17.9928 25.8698 17.4085 26.48 16.6815C27.0901 15.9546 27.5335 15.1027 27.7789 14.1858C28.0242 13.269 28.0655 12.3095 27.9 11.375L29.945 21.8962C30.1049 22.8095 29.8959 23.7488 29.3639 24.5081C28.8319 25.2674 28.0204 25.7847 27.1075 25.9463Z" fill="#013656"/>
<path d="M22 14H19C18.7348 14 18.4804 13.8946 18.2929 13.7071C18.1054 13.5196 18 13.2652 18 13C18 12.7348 18.1054 12.4804 18.2929 12.2929C18.4804 12.1054 18.7348 12 19 12H22C22.2652 12 22.5196 12.1054 22.7071 12.2929C22.8946 12.4804 23 12.7348 23 13C23 13.2652 22.8946 13.5196 22.7071 13.7071C22.5196 13.8946 22.2652 14 22 14ZM13 12H12V11C12 10.7348 11.8946 10.4804 11.7071 10.2929C11.5196 10.1054 11.2652 10 11 10C10.7348 10 10.4804 10.1054 10.2929 10.2929C10.1054 10.4804 10 10.7348 10 11V12H9C8.73478 12 8.48043 12.1054 8.29289 12.2929C8.10536 12.4804 8 12.7348 8 13C8 13.2652 8.10536 13.5196 8.29289 13.7071C8.48043 13.8946 8.73478 14 9 14H10V15C10 15.2652 10.1054 15.5196 10.2929 15.7071C10.4804 15.8946 10.7348 16 11 16C11.2652 16 11.5196 15.8946 11.7071 15.7071C11.8946 15.5196 12 15.2652 12 15V14H13C13.2652 14 13.5196 13.8946 13.7071 13.7071C13.8946 13.5196 14 13.2652 14 13C14 12.7348 13.8946 12.4804 13.7071 12.2929C13.5196 12.1054 13.2652 12 13 12ZM30.185 25.0812C29.8081 25.6194 29.318 26.0686 28.749 26.3971C28.18 26.7256 27.5459 26.9255 26.8914 26.9828C26.2369 27.0401 25.5778 26.9534 24.9603 26.7288C24.3429 26.5041 23.7822 26.147 23.3175 25.6825C23.3025 25.6675 23.2875 25.6525 23.2738 25.6362L18.31 20H13.685L8.72625 25.6362L8.6825 25.6825C7.83775 26.5254 6.69336 26.9992 5.5 27C4.84305 26.9998 4.19411 26.8557 3.59879 26.5779C3.00346 26.3001 2.47618 25.8953 2.05398 25.392C1.63179 24.8886 1.32491 24.299 1.15492 23.6644C0.984931 23.0298 0.955945 22.3657 1.07 21.7188C1.06941 21.7129 1.06941 21.7071 1.07 21.7013L3.11625 11.19C3.42079 9.45634 4.32657 7.88546 5.67444 6.75339C7.02232 5.62133 8.72604 5.0005 10.4862 5H21.5C23.2549 5.0028 24.9534 5.62008 26.3006 6.74466C27.6478 7.86924 28.5587 9.4301 28.875 11.1562V11.1788L30.9212 21.7C30.9218 21.7058 30.9218 21.7117 30.9212 21.7175C31.0272 22.299 31.0166 22.8958 30.8902 23.4732C30.7638 24.0506 30.5241 24.5971 30.185 25.0812ZM21.5 18C22.9587 18 24.3576 17.4205 25.3891 16.3891C26.4205 15.3576 27 13.9587 27 12.5C27 11.0413 26.4205 9.64236 25.3891 8.61091C24.3576 7.57946 22.9587 7 21.5 7H10.4862C9.19494 7.00116 7.9454 7.45767 6.95746 8.28922C5.96953 9.12076 5.30649 10.2741 5.085 11.5463V11.5625L3.0375 22.0737C2.947 22.5949 3.0241 23.1313 3.25772 23.6058C3.49134 24.0803 3.86944 24.4685 4.33764 24.7145C4.80584 24.9606 5.34001 25.0518 5.86333 24.9751C6.38665 24.8983 6.87215 24.6576 7.25 24.2875L12.49 18.3388C12.5838 18.2323 12.6992 18.1471 12.8285 18.0886C12.9578 18.0302 13.0981 18 13.24 18H21.5ZM28.9625 22.0737L27.87 16.4487C27.1981 17.5337 26.2604 18.4293 25.1457 19.0508C24.031 19.6722 22.7762 19.9989 21.5 20H20.975L24.75 24.2887C25.0346 24.5656 25.3808 24.771 25.7602 24.8881C26.1396 25.0052 26.5414 25.0307 26.9325 24.9625C27.5841 24.8475 28.1635 24.4788 28.5438 23.9374C28.9241 23.3959 29.0742 22.7257 28.9613 22.0737H28.9625Z" fill="#013656"/>
</svg>
