<svg width="32" height="32" viewBox="0 0 32 32" fill="none" xmlns="http://www.w3.org/2000/svg">
<path opacity="0.2" d="M29 12.75C29 21 16 28 16 28C16 28 3 21 3 12.75C3 10.9598 3.71116 9.2429 4.97703 7.97703C6.2429 6.71116 7.95979 6 9.75 6C12.5737 6 14.9925 7.53875 16 10C17.0075 7.53875 19.4263 6 22.25 6C24.0402 6 25.7571 6.71116 27.023 7.97703C28.2888 9.2429 29 10.9598 29 12.75Z" fill="#013656"/>
<path d="M22.25 5C19.6688 5 17.4088 6.11 16 7.98625C14.5912 6.11 12.3313 5 9.75 5C7.69528 5.00232 5.72539 5.81958 4.27248 7.27248C2.81958 8.72539 2.00232 10.6953 2 12.75C2 21.5 14.9738 28.5825 15.5262 28.875C15.6719 28.9533 15.8346 28.9943 16 28.9943C16.1654 28.9943 16.3281 28.9533 16.4737 28.875C17.0262 28.5825 30 21.5 30 12.75C29.9977 10.6953 29.1804 8.72539 27.7275 7.27248C26.2746 5.81958 24.3047 5.00232 22.25 5ZM16 26.85C13.7175 25.52 4 19.4613 4 12.75C4.00198 11.2256 4.60842 9.76423 5.68633 8.68633C6.76423 7.60842 8.22561 7.00198 9.75 7C12.1812 7 14.2225 8.295 15.075 10.375C15.1503 10.5584 15.2785 10.7153 15.4432 10.8257C15.6079 10.9361 15.8017 10.995 16 10.995C16.1983 10.995 16.3921 10.9361 16.5568 10.8257C16.7215 10.7153 16.8497 10.5584 16.925 10.375C17.7775 8.29125 19.8188 7 22.25 7C23.7744 7.00198 25.2358 7.60842 26.3137 8.68633C27.3916 9.76423 27.998 11.2256 28 12.75C28 19.4513 18.28 25.5188 16 26.85Z" fill="#013656"/>
</svg>
