<svg width="64" height="112" viewBox="0 0 64 112" fill="none" xmlns="http://www.w3.org/2000/svg">
<rect x="0.5" y="0.5" width="63" height="111" rx="4.5" stroke="#8A38F5" stroke-dasharray="10 5"/>
<path opacity="0.2" d="M43 24V40H21V24H43Z" fill="#013656"/>
<path d="M44 32C44 32.2652 43.8946 32.5196 43.7071 32.7071C43.5196 32.8946 43.2652 33 43 33H21C20.7348 33 20.4804 32.8946 20.2929 32.7071C20.1054 32.5196 20 32.2652 20 32C20 31.7348 20.1054 31.4804 20.2929 31.2929C20.4804 31.1054 20.7348 31 21 31H43C43.2652 31 43.5196 31.1054 43.7071 31.2929C43.8946 31.4804 44 31.7348 44 32ZM21 25H43C43.2652 25 43.5196 24.8946 43.7071 24.7071C43.8946 24.5196 44 24.2652 44 24C44 23.7348 43.8946 23.4804 43.7071 23.2929C43.5196 23.1054 43.2652 23 43 23H21C20.7348 23 20.4804 23.1054 20.2929 23.2929C20.1054 23.4804 20 23.7348 20 24C20 24.2652 20.1054 24.5196 20.2929 24.7071C20.4804 24.8946 20.7348 25 21 25ZM43 39H21C20.7348 39 20.4804 39.1054 20.2929 39.2929C20.1054 39.4804 20 39.7348 20 40C20 40.2652 20.1054 40.5196 20.2929 40.7071C20.4804 40.8946 20.7348 41 21 41H43C43.2652 41 43.5196 40.8946 43.7071 40.7071C43.8946 40.5196 44 40.2652 44 40C44 39.7348 43.8946 39.4804 43.7071 39.2929C43.5196 39.1054 43.2652 39 43 39Z" fill="#013656"/>
<g clip-path="url(#clip0_496_1816)">
<path opacity="0.2" d="M43 71V89C43 89.5304 42.7893 90.0391 42.4142 90.4142C42.0391 90.7893 41.5304 91 41 91H23C22.4696 91 21.9609 90.7893 21.5858 90.4142C21.2107 90.0391 21 89.5304 21 89V71C21 70.4696 21.2107 69.9609 21.5858 69.5858C21.9609 69.2107 22.4696 69 23 69H41C41.5304 69 42.0391 69.2107 42.4142 69.5858C42.7893 69.9609 43 70.4696 43 71Z" fill="#013656"/>
<path d="M41.7074 88.2924C41.8004 88.3854 41.8741 88.4957 41.9243 88.6171C41.9746 88.7384 42.0005 88.8686 42.0005 88.9999C42.0005 89.1313 41.9746 89.2614 41.9243 89.3828C41.8741 89.5042 41.8004 89.6145 41.7074 89.7074C41.6145 89.8004 41.5042 89.8741 41.3828 89.9243C41.2614 89.9746 41.1313 90.0005 40.9999 90.0005C40.8686 90.0005 40.7384 89.9746 40.6171 89.9243C40.4957 89.8741 40.3854 89.8004 40.2924 89.7074L31.9999 81.4137L23.7074 89.7074C23.5198 89.8951 23.2653 90.0005 22.9999 90.0005C22.7346 90.0005 22.4801 89.8951 22.2924 89.7074C22.1048 89.5198 21.9994 89.2653 21.9994 88.9999C21.9994 88.7346 22.1048 88.4801 22.2924 88.2924L30.5862 79.9999L22.2924 71.7074C22.1048 71.5198 21.9994 71.2653 21.9994 70.9999C21.9994 70.7346 22.1048 70.4801 22.2924 70.2924C22.4801 70.1048 22.7346 69.9994 22.9999 69.9994C23.2653 69.9994 23.5198 70.1048 23.7074 70.2924L31.9999 78.5862L40.2924 70.2924C40.4801 70.1048 40.7346 69.9994 40.9999 69.9994C41.2653 69.9994 41.5198 70.1048 41.7074 70.2924C41.8951 70.4801 42.0005 70.7346 42.0005 70.9999C42.0005 71.2653 41.8951 71.5198 41.7074 71.7074L33.4137 79.9999L41.7074 88.2924Z" fill="#013656"/>
</g>
<defs>
<clipPath id="clip0_496_1816">
<rect width="32" height="32" fill="white" transform="translate(16 64)"/>
</clipPath>
</defs>
</svg>
