<svg width="32" height="32" viewBox="0 0 32 32" fill="none" xmlns="http://www.w3.org/2000/svg">
<path opacity="0.2" d="M26 13C26.0013 14.5152 25.6577 16.0108 24.9952 17.3735C24.3327 18.7362 23.3687 19.9302 22.1763 20.865C21.8121 21.1472 21.5169 21.5086 21.3131 21.9219C21.1093 22.3351 21.0023 22.7892 21 23.25V24C21 24.2652 20.8946 24.5196 20.7071 24.7071C20.5196 24.8946 20.2652 25 20 25H12C11.7348 25 11.4804 24.8946 11.2929 24.7071C11.1054 24.5196 11 24.2652 11 24V23.25C10.9995 22.7918 10.8946 22.3397 10.6931 21.9282C10.4917 21.5166 10.1991 21.1564 9.8375 20.875C8.64872 19.9463 7.68583 18.7603 7.02118 17.4061C6.35653 16.0519 6.00739 14.5647 6 13.0562C5.97 7.63623 10.34 3.12498 15.7588 2.99998C17.0921 2.9678 18.4185 3.20269 19.6597 3.69081C20.901 4.17893 22.032 4.91042 22.9863 5.84223C23.9406 6.77404 24.6988 7.88734 25.2164 9.11659C25.734 10.3458 26.0004 11.6662 26 13Z" fill="#013656"/>
<path d="M22 29C22 29.2652 21.8946 29.5196 21.7071 29.7071C21.5196 29.8947 21.2652 30 21 30H11C10.7348 30 10.4804 29.8947 10.2929 29.7071C10.1054 29.5196 10 29.2652 10 29C10 28.7348 10.1054 28.4804 10.2929 28.2929C10.4804 28.1054 10.7348 28 11 28H21C21.2652 28 21.5196 28.1054 21.7071 28.2929C21.8946 28.4804 22 28.7348 22 29ZM27 13C27.0043 14.6671 26.6277 16.3131 25.899 17.8124C25.1702 19.3117 24.1085 20.6248 22.795 21.6513C22.5494 21.8395 22.3501 22.0815 22.2123 22.3585C22.0745 22.6356 22.0019 22.9406 22 23.25V24C22 24.5305 21.7893 25.0392 21.4142 25.4142C21.0391 25.7893 20.5304 26 20 26H12C11.4696 26 10.9609 25.7893 10.5858 25.4142C10.2107 25.0392 10 24.5305 10 24V23.25C9.9998 22.9443 9.92949 22.6426 9.79449 22.3683C9.65949 22.094 9.46339 21.8542 9.22125 21.6675C7.91117 20.6472 6.85033 19.3423 6.119 17.8515C5.38767 16.3607 5.00502 14.723 5 13.0625C4.9675 7.10377 9.7825 2.14377 15.735 2.00002C17.2017 1.96467 18.6606 2.22309 20.0259 2.76004C21.3913 3.297 22.6354 4.10165 23.6851 5.12663C24.7347 6.15162 25.5688 7.37623 26.1381 8.72838C26.7074 10.0805 27.0004 11.5329 27 13ZM25 13C25.0004 11.7996 24.7606 10.6112 24.2947 9.50488C23.8289 8.39853 23.1464 7.39654 22.2875 6.55791C21.4286 5.71927 20.4106 5.06094 19.2935 4.62165C18.1763 4.18237 16.9826 3.97101 15.7825 4.00002C10.9075 4.11502 6.97375 8.17377 7 13.0488C7.00448 14.407 7.31786 15.7465 7.91644 16.9657C8.51502 18.1849 9.38311 19.2521 10.455 20.0863C10.9368 20.4608 11.3265 20.9406 11.5943 21.489C11.8621 22.0374 12.0009 22.6398 12 23.25V24H15V18.4138L11.2925 14.7075C11.1049 14.5199 10.9994 14.2654 10.9994 14C10.9994 13.7347 11.1049 13.4802 11.2925 13.2925C11.4801 13.1049 11.7346 12.9995 12 12.9995C12.2654 12.9995 12.5199 13.1049 12.7075 13.2925L16 16.5863L19.2925 13.2925C19.3854 13.1996 19.4957 13.1259 19.6171 13.0756C19.7385 13.0253 19.8686 12.9995 20 12.9995C20.1314 12.9995 20.2615 13.0253 20.3829 13.0756C20.5043 13.1259 20.6146 13.1996 20.7075 13.2925C20.8004 13.3854 20.8741 13.4957 20.9244 13.6171C20.9747 13.7385 21.0006 13.8686 21.0006 14C21.0006 14.1314 20.9747 14.2615 20.9244 14.3829C20.8741 14.5043 20.8004 14.6146 20.7075 14.7075L17 18.4138V24H20V23.25C20.0011 22.638 20.1421 22.0343 20.4123 21.4851C20.6825 20.9359 21.0746 20.4557 21.5588 20.0813C22.6339 19.2411 23.5028 18.1663 24.0992 16.9391C24.6956 15.7118 25.0037 14.3645 25 13Z" fill="#013656"/>
</svg>
