<svg width="24" height="24" viewBox="0 0 24 24" fill="none" xmlns="http://www.w3.org/2000/svg">
<path opacity="0.2" d="M8.98125 5.26882C9.34834 5.63594 9.59832 6.10367 9.69958 6.61286C9.80085 7.12206 9.74885 7.64984 9.55016 8.12948C9.35147 8.60912 9.01502 9.01908 8.58335 9.3075C8.15167 9.59593 7.64417 9.74988 7.125 9.74988C6.60584 9.74988 6.09833 9.59593 5.66666 9.3075C5.23498 9.01908 4.89853 8.60912 4.69984 8.12948C4.50116 7.64984 4.44916 7.12206 4.55042 6.61286C4.65168 6.10367 4.90167 5.63594 5.26875 5.26882C5.51251 5.02504 5.8019 4.83166 6.1204 4.69972C6.43889 4.56778 6.78026 4.49988 7.125 4.49988C7.46974 4.49988 7.81111 4.56778 8.12961 4.69972C8.4481 4.83166 8.73749 5.02504 8.98125 5.26882ZM18.7313 15.0188C18.3641 14.6517 17.8964 14.4018 17.3872 14.3005C16.878 14.1992 16.3502 14.2512 15.8706 14.4499C15.3909 14.6486 14.981 14.9851 14.6926 15.4167C14.4041 15.8484 14.2502 16.3559 14.2502 16.8751C14.2502 17.3942 14.4041 17.9017 14.6926 18.3334C14.981 18.7651 15.3909 19.1015 15.8706 19.3002C16.3502 19.4989 16.878 19.5509 17.3872 19.4496C17.8964 19.3484 18.3641 19.0984 18.7313 18.7313C18.975 18.4876 19.1684 18.1982 19.3003 17.8797C19.4323 17.5612 19.5002 17.2198 19.5002 16.8751C19.5002 16.5303 19.4323 16.189 19.3003 15.8705C19.1684 15.552 18.975 15.2626 18.7313 15.0188Z" fill="#013656"/>
<path d="M19.2806 5.77879L5.7806 19.2788C5.63987 19.4195 5.449 19.4986 5.24998 19.4986C5.05095 19.4986 4.86008 19.4195 4.71935 19.2788C4.57862 19.1381 4.49956 18.9472 4.49956 18.7482C4.49956 18.5491 4.57862 18.3583 4.71935 18.2175L18.2194 4.71754C18.36 4.57681 18.5507 4.4977 18.7496 4.49761C18.9486 4.49752 19.1394 4.57646 19.2801 4.71707C19.4209 4.85768 19.5 5.04843 19.5001 5.24736C19.5001 5.4463 19.4212 5.63712 19.2806 5.77785V5.77879ZM4.7381 9.51004C4.10519 8.877 3.74967 8.01847 3.74976 7.1233C3.74984 6.22814 4.10553 5.36967 4.73857 4.73676C5.37161 4.10384 6.23014 3.74833 7.12531 3.74841C8.02047 3.7485 8.87894 4.10419 9.51185 4.73723C10.1448 5.37026 10.5003 6.2288 10.5002 7.12396C10.5001 8.01913 10.1444 8.87759 9.51138 9.51051C8.87834 10.1434 8.01981 10.4989 7.12464 10.4989C6.22948 10.4988 5.37101 10.1431 4.7381 9.51004ZM5.24998 7.12504C5.25022 7.43333 5.32648 7.73681 5.472 8.0086C5.61752 8.28039 5.82781 8.5121 6.08426 8.68322C6.34071 8.85434 6.63539 8.95959 6.94222 8.98964C7.24904 9.01969 7.55855 8.97361 7.84332 8.8555C8.12809 8.73739 8.37934 8.55088 8.57483 8.31249C8.77032 8.0741 8.90401 7.79118 8.96406 7.48879C9.02411 7.1864 9.00867 6.87387 8.91911 6.57887C8.82955 6.28387 8.66863 6.0155 8.4506 5.79754C8.18827 5.53528 7.85404 5.35673 7.4902 5.28448C7.12636 5.21222 6.74927 5.24951 6.40663 5.39163C6.06399 5.53374 5.77121 5.77429 5.56532 6.08285C5.35943 6.3914 5.24968 6.7541 5.24998 7.12504ZM20.25 16.875C20.2498 17.6559 19.9789 18.4124 19.4834 19.0159C18.9879 19.6194 18.2985 20.0324 17.5327 20.1846C16.7669 20.3367 15.9719 20.2186 15.2834 19.8504C14.5949 19.4822 14.0553 18.8866 13.7566 18.1652C13.458 17.4438 13.4187 16.6411 13.6455 15.8939C13.8723 15.1468 14.3511 14.5014 15.0004 14.0677C15.6497 13.634 16.4293 13.4389 17.2064 13.5156C17.9834 13.5922 18.7098 13.936 19.2619 14.4882C19.5762 14.8009 19.8254 15.1729 19.9951 15.5826C20.1647 15.9923 20.2513 16.4316 20.25 16.875ZM18.75 16.875C18.7501 16.4412 18.5997 16.0208 18.3246 15.6854C18.0495 15.3501 17.6666 15.1205 17.2411 15.0357C16.8157 14.951 16.374 15.0165 15.9914 15.2209C15.6088 15.4253 15.3089 15.756 15.1428 16.1568C14.9768 16.5575 14.9548 17.0035 15.0806 17.4186C15.2065 17.8337 15.4724 18.1924 15.833 18.4335C16.1937 18.6745 16.6267 18.7831 17.0585 18.7406C17.4902 18.6982 17.8938 18.5074 18.2006 18.2007C18.3753 18.027 18.5138 17.8204 18.6081 17.5929C18.7024 17.3653 18.7506 17.1213 18.75 16.875Z" fill="#013656"/>
</svg>
