<svg width="32" height="32" viewBox="0 0 32 32" fill="none" xmlns="http://www.w3.org/2000/svg">
<path opacity="0.2" d="M25.4999 21C26.0187 21.0005 26.531 20.8857 26.9999 20.6638V26C26.9999 26.2653 26.8946 26.5196 26.7071 26.7072C26.5195 26.8947 26.2652 27 25.9999 27H7.99994C7.73473 27 7.48037 26.8947 7.29284 26.7072C7.1053 26.5196 6.99994 26.2653 6.99994 26V20.6638C6.46648 20.9162 5.87786 21.0296 5.2888 20.9935C4.69975 20.9574 4.12939 20.7729 3.63077 20.4572C3.13215 20.1415 2.72145 19.7048 2.43687 19.1878C2.15228 18.6708 2.00305 18.0902 2.00305 17.5C2.00305 16.9099 2.15228 16.3293 2.43687 15.8123C2.72145 15.2953 3.13215 14.8586 3.63077 14.5429C4.12939 14.2272 4.69975 14.0427 5.2888 14.0066C5.87786 13.9705 6.46648 14.0839 6.99994 14.3363V9.00004C6.99994 8.73483 7.1053 8.48047 7.29284 8.29294C7.48037 8.1054 7.73473 8.00004 7.99994 8.00004H13.8362C13.5835 7.46657 13.4699 6.87786 13.5058 6.28867C13.5418 5.69948 13.7261 5.12896 14.0418 4.63017C14.3575 4.13137 14.7942 3.72052 15.3112 3.43582C15.8283 3.15112 16.409 3.00183 16.9993 3.00183C17.5896 3.00183 18.1703 3.15112 18.6874 3.43582C19.2045 3.72052 19.6412 4.13137 19.9568 4.63017C20.2725 5.12896 20.4569 5.69948 20.4928 6.28867C20.5288 6.87786 20.4151 7.46657 20.1624 8.00004H25.9999C26.2652 8.00004 26.5195 8.1054 26.7071 8.29294C26.8946 8.48047 26.9999 8.73483 26.9999 9.00004V14.3363C26.5257 14.1119 26.0071 13.997 25.4824 14.0001C24.9578 14.0032 24.4405 14.1242 23.9689 14.3542C23.4974 14.5842 23.0835 14.9172 22.758 15.3287C22.4325 15.7402 22.2037 16.2196 22.0885 16.7314C21.9733 17.2433 21.9746 17.7745 22.0924 18.2858C22.2102 18.797 22.4414 19.2753 22.7689 19.6851C23.0965 20.095 23.512 20.426 23.9847 20.6536C24.4574 20.8812 24.9753 20.9996 25.4999 21Z" fill="#013656"/>
<path d="M27.5338 19.8176C27.3912 19.7276 27.2282 19.6752 27.0599 19.6651C26.8916 19.6551 26.7235 19.6877 26.5713 19.7601C26.1902 19.9403 25.7698 20.0212 25.3491 19.9953C24.9284 19.9695 24.521 19.8377 24.1649 19.6122C23.8088 19.3867 23.5155 19.0748 23.3122 18.7055C23.109 18.3362 23.0024 17.9216 23.0024 17.5001C23.0024 17.0785 23.109 16.6639 23.3122 16.2946C23.5155 15.9253 23.8088 15.6134 24.1649 15.3879C24.521 15.1624 24.9284 15.0306 25.3491 15.0048C25.7698 14.9789 26.1902 15.0598 26.5713 15.2401C26.7237 15.3124 26.892 15.345 27.0604 15.3348C27.2288 15.3246 27.392 15.272 27.5346 15.1818C27.6772 15.0915 27.7946 14.9667 27.876 14.8189C27.9574 14.6711 28.0001 14.505 28 14.3363V9.00005C28 8.46962 27.7893 7.96091 27.4142 7.58584C27.0391 7.21077 26.5304 7.00005 26 7.00005H21.4725C21.4912 6.83405 21.5004 6.66711 21.5 6.50005C21.499 5.88529 21.3725 5.27721 21.1283 4.71301C20.8842 4.14882 20.5274 3.64038 20.08 3.2188C19.4603 2.63677 18.6883 2.24222 17.8536 2.08084C17.0188 1.91945 16.1554 1.99785 15.3634 2.30694C14.5714 2.61604 13.8831 3.14318 13.3783 3.82732C12.8736 4.51145 12.5729 5.32459 12.5112 6.17255C12.4921 6.44835 12.4979 6.72532 12.5287 7.00005H8C7.46957 7.00005 6.96086 7.21077 6.58579 7.58584C6.21071 7.96091 6 8.46962 6 9.00005V13.0276C5.83399 13.0088 5.66705 12.9997 5.5 13.0001C4.88542 13.001 4.2775 13.1275 3.7135 13.3717C3.1495 13.6158 2.64129 13.9726 2.22 14.4201C1.79569 14.8683 1.46896 15.3996 1.26047 15.9805C1.05199 16.5615 0.966274 17.1793 1.00875 17.7951C1.08041 18.8793 1.54109 19.9012 2.30609 20.6728C3.07108 21.4445 4.08894 21.914 5.1725 21.9951C5.4483 22.0142 5.72526 22.0084 6 21.9776V26.0001C6 26.5305 6.21071 27.0392 6.58579 27.4143C6.96086 27.7893 7.46957 28.0001 8 28.0001H26C26.5304 28.0001 27.0391 27.7893 27.4142 27.4143C27.7893 27.0392 28 26.5305 28 26.0001V20.6638C28.0001 20.4948 27.9574 20.3286 27.8759 20.1806C27.7943 20.0326 27.6766 19.9077 27.5338 19.8176ZM26 26.0001H8V20.6638C8.00005 20.4951 7.95741 20.329 7.87603 20.1812C7.79465 20.0334 7.67719 19.9086 7.53458 19.8184C7.39197 19.7281 7.22885 19.6755 7.06041 19.6653C6.89197 19.6551 6.7237 19.6877 6.57125 19.7601C6.19021 19.9403 5.76978 20.0212 5.34907 19.9953C4.92836 19.9695 4.52101 19.8377 4.1649 19.6122C3.80879 19.3867 3.51548 19.0748 3.31224 18.7055C3.10899 18.3362 3.00242 17.9216 3.00242 17.5001C3.00242 17.0785 3.10899 16.6639 3.31224 16.2946C3.51548 15.9253 3.80879 15.6134 4.1649 15.3879C4.52101 15.1624 4.92836 15.0306 5.34907 15.0048C5.76978 14.9789 6.19021 15.0598 6.57125 15.2401C6.7237 15.3124 6.89197 15.345 7.06041 15.3348C7.22885 15.3246 7.39197 15.272 7.53458 15.1818C7.67719 15.0915 7.79465 14.9667 7.87603 14.8189C7.95741 14.6711 8.00005 14.505 8 14.3363V9.00005H13.8362C14.005 9.00011 14.171 8.95746 14.3188 8.87608C14.4667 8.7947 14.5915 8.67724 14.6817 8.53463C14.7719 8.39202 14.8246 8.2289 14.8347 8.06047C14.8449 7.89203 14.8123 7.72375 14.74 7.5713C14.5598 7.19026 14.4789 6.76984 14.5047 6.34912C14.5306 5.92841 14.6624 5.52106 14.8879 5.16495C15.1134 4.80884 15.4253 4.51553 15.7946 4.31229C16.1638 4.10905 16.5785 4.00247 17 4.00247C17.4215 4.00247 17.8362 4.10905 18.2054 4.31229C18.5747 4.51553 18.8866 4.80884 19.1121 5.16495C19.3376 5.52106 19.4694 5.92841 19.4953 6.34912C19.5211 6.76984 19.4402 7.19026 19.26 7.5713C19.1877 7.72375 19.1551 7.89203 19.1652 8.06047C19.1754 8.2289 19.2281 8.39202 19.3183 8.53463C19.4085 8.67724 19.5333 8.7947 19.6812 8.87608C19.829 8.95746 19.995 9.00011 20.1637 9.00005H26V13.0288C25.7253 12.9973 25.4483 12.9915 25.1725 13.0113C24.0086 13.0937 22.9223 13.625 22.1426 14.493C21.3629 15.361 20.9509 16.4979 20.9933 17.6639C21.0358 18.8299 21.5295 19.9338 22.3703 20.7428C23.2111 21.5518 24.3332 22.0026 25.5 22.0001C25.6671 22.0004 25.834 21.9913 26 21.9726V26.0001Z" fill="#013656"/>
</svg>
