<svg width="80" height="80" viewBox="0 0 80 80" fill="none" xmlns="http://www.w3.org/2000/svg">
<path opacity="0.2" d="M33.75 22.5V45H12.5C11.837 45 11.2011 44.7366 10.7322 44.2678C10.2634 43.7989 10 43.163 10 42.5V22.5C10 21.837 10.2634 21.2011 10.7322 20.7322C11.2011 20.2634 11.837 20 12.5 20H31.25C31.913 20 32.5489 20.2634 33.0178 20.7322C33.4866 21.2011 33.75 21.837 33.75 22.5ZM67.5 20H48.75C48.087 20 47.4511 20.2634 46.9822 20.7322C46.5134 21.2011 46.25 21.837 46.25 22.5V42.5C46.25 43.163 46.5134 43.7989 46.9822 44.2678C47.4511 44.7366 48.087 45 48.75 45H70V22.5C70 21.837 69.7366 21.2011 69.2678 20.7322C68.7989 20.2634 68.163 20 67.5 20Z" fill="#A7DDE6"/>
<path d="M31.25 17.5H12.5C11.1739 17.5 9.90215 18.0268 8.96447 18.9645C8.02678 19.9021 7.5 21.1739 7.5 22.5V42.5C7.5 43.8261 8.02678 45.0979 8.96447 46.0355C9.90215 46.9732 11.1739 47.5 12.5 47.5H31.25V50C31.25 52.6522 30.1964 55.1957 28.3211 57.0711C26.4457 58.9464 23.9022 60 21.25 60C20.587 60 19.9511 60.2634 19.4822 60.7322C19.0134 61.2011 18.75 61.837 18.75 62.5C18.75 63.163 19.0134 63.7989 19.4822 64.2678C19.9511 64.7366 20.587 65 21.25 65C25.227 64.9959 29.0399 63.4142 31.852 60.602C34.6642 57.7899 36.2459 53.977 36.25 50V22.5C36.25 21.1739 35.7232 19.9021 34.7855 18.9645C33.8479 18.0268 32.5761 17.5 31.25 17.5ZM31.25 42.5H12.5V22.5H31.25V42.5ZM67.5 17.5H48.75C47.4239 17.5 46.1521 18.0268 45.2145 18.9645C44.2768 19.9021 43.75 21.1739 43.75 22.5V42.5C43.75 43.8261 44.2768 45.0979 45.2145 46.0355C46.1521 46.9732 47.4239 47.5 48.75 47.5H67.5V50C67.5 52.6522 66.4464 55.1957 64.5711 57.0711C62.6957 58.9464 60.1522 60 57.5 60C56.837 60 56.2011 60.2634 55.7322 60.7322C55.2634 61.2011 55 61.837 55 62.5C55 63.163 55.2634 63.7989 55.7322 64.2678C56.2011 64.7366 56.837 65 57.5 65C61.477 64.9959 65.2899 63.4142 68.102 60.602C70.9142 57.7899 72.4959 53.977 72.5 50V22.5C72.5 21.1739 71.9732 19.9021 71.0355 18.9645C70.0979 18.0268 68.8261 17.5 67.5 17.5ZM67.5 42.5H48.75V22.5H67.5V42.5Z" fill="#A7DDE6"/>
</svg>
