<svg width="136" height="29" viewBox="0 0 136 29" fill="none" xmlns="http://www.w3.org/2000/svg">
<g clip-path="url(#clip0_307_887)">
<path d="M9.85774 21.5495C8.92578 19.3637 9.03735 16.7329 9.95946 14.6088C10.7963 12.6764 12.5945 11.3383 14.7439 11.2863L19.4628 11.1694C19.535 9.854 19.4037 8.34051 18.3864 7.52855C17.1198 6.52171 15.5446 6.5477 13.7201 6.46325L13.661 3.86823C15.2165 3.79353 16.6571 3.65712 18.1141 4.14429C20.1946 4.83933 22.2127 6.63539 22.2816 8.92187C22.3932 12.4977 22.3932 15.9892 22.2849 19.5066C22.1766 23.063 19.1773 25.33 15.84 25.2715C13.2049 25.226 10.98 24.1932 9.85774 21.5592V21.5495ZM19.5317 18.5777L19.4956 14.0372L15.5282 14.047C13.241 14.0535 12.0465 16.0314 12.145 18.123C12.204 19.4124 12.3681 20.6498 13.1885 21.4326C14.0909 22.2965 15.397 22.5206 16.6374 22.264C18.4586 21.8905 19.5481 20.5167 19.5317 18.5777Z" fill="white"/>
<path d="M11.7446 6.36252C9.60834 6.49893 6.36946 7.00235 6.3629 9.80199L6.33008 25.1318H3.37014L3.33732 9.47721C3.33076 7.11602 1.8475 5.22902 0 3.89091C1.89673 3.69604 3.45874 4.65091 4.92559 5.84612C6.78622 4.09228 9.16533 3.42322 11.7315 3.92339L11.7446 6.36252Z" fill="white"/>
<path d="M116.678 19.578L117.938 19.7989C118.234 19.8509 118.037 20.9324 117.728 20.9324L114.25 20.9064C114.053 20.9064 113.781 20.1074 113.948 20.0035L115.008 19.3377L115.1 15.856C115.113 15.3688 114.66 14.3295 114.247 14.1282C113.676 13.8489 112.064 14.4822 112.012 15.122C111.897 16.6095 111.92 18.3114 111.976 19.6852L113.134 19.7664C113.384 19.7827 113.367 20.848 113.118 20.8609C112.068 20.9227 110.102 20.9389 108.94 20.9227C108.839 20.6823 108.694 19.8574 108.917 19.7957L110.122 19.4676L110.151 14.1022L108.963 13.982C108.737 13.9593 108.455 13.2545 108.632 13.0466C109.292 12.2704 111.333 12.1242 112.107 13.2188C113.525 12.121 115.248 12.16 116.298 13.4689L118.687 12.475C119.12 12.2964 120.291 12.5822 120.662 12.8648C121.079 13.183 121.532 14.0827 121.538 14.7225L121.594 19.7015L122.72 19.7729C122.979 19.7892 122.976 20.8025 122.72 20.8285C121.827 20.9129 120.098 20.9551 119.044 20.9519C118.949 20.7018 118.815 19.9028 119.015 19.7989L119.937 19.3215C120.016 17.8762 120.216 15.8625 119.435 14.4627C118.854 13.4201 116.668 14.5147 116.668 15.5767L116.678 19.5813V19.578Z" fill="white"/>
<path d="M86.941 16.4374L86.5472 15.791C86.4422 15.6189 85.6251 15.8073 85.6219 16.0054L85.5726 19.5715L87.302 19.8216C87.4989 19.8508 87.5284 20.6336 87.3545 20.718C87.1806 20.8025 86.7441 20.9551 86.544 20.9551L82.5766 20.9291C82.4289 20.7895 82.278 19.932 82.5274 19.8444L83.817 19.3929L83.84 9.94817L82.5175 9.70458C82.2714 9.65911 82.2189 9.21416 82.173 8.62955L87.3578 8.57433C89.3595 8.5516 90.5934 10.1625 90.5639 11.9683C90.5376 13.563 89.9305 14.6088 88.4309 15.3948L90.8264 19.2955C90.9412 19.4838 91.7452 19.578 91.9552 19.6462C92.1652 19.7144 92.2145 20.5037 92.0569 20.6563C91.5122 21.1857 89.6549 21.0428 89.1889 20.2503L86.9443 16.4374H86.941ZM85.6022 14.2678C86.4357 14.4659 87.6761 14.1411 88.1257 13.6085C88.6901 12.9394 88.7426 11.4974 88.3521 10.8673C87.8795 10.1008 86.626 9.76629 85.612 10.0651L85.6022 14.2711V14.2678Z" fill="white"/>
<path d="M38.8403 16.1678C38.6499 15.8235 37.6162 15.6612 37.613 15.9502L37.5605 19.6398L39.234 19.7502C39.5753 19.7729 39.4736 20.9357 39.1061 20.9357H34.5349C34.4102 20.757 34.4036 19.8898 34.6202 19.8379L35.8016 19.5456L35.8147 9.88324L34.3971 9.68187C34.1181 9.6429 34.2231 8.60684 34.4889 8.60034C35.8016 8.56786 38.0658 8.56461 39.4145 8.60684C41.4294 8.67179 42.6501 10.1885 42.6206 11.9748C42.5976 13.5208 41.9938 14.6121 40.5303 15.3948C41.2062 16.668 42.1218 18.3244 42.9028 19.3247C43.1555 19.6463 44.3664 19.9028 44.2253 20.3705C44.0087 21.0883 42.8437 21.0526 42.2137 20.9194C41.7182 20.8155 41.0848 20.1984 40.7665 19.6235L38.8435 16.1646L38.8403 16.1678ZM37.5834 14.2418C38.4891 14.5796 39.8247 14.1866 40.2841 13.4624C40.7665 12.7024 40.7501 11.4455 40.353 10.8706C39.7886 10.0554 38.476 9.77281 37.5769 10.0781V14.2418H37.5834Z" fill="white"/>
<path d="M58.7723 14.6705C58.4934 13.839 56.3243 14.2255 56.1438 15.083C55.855 16.4601 55.9666 18.2431 56.0257 19.6494L57.2759 19.8086C57.4991 19.8378 57.3744 20.5751 57.2661 20.8706L53.384 20.9746C53.2101 20.9778 52.5538 20.5361 52.6588 20.4127C53.7844 19.0973 54.2143 19.906 54.2143 19.1135V9.62335L52.9509 9.37002C52.7146 9.32455 52.5407 8.46387 52.7376 8.32746C53.3939 7.8825 54.8771 7.80131 55.8944 8.0384L56.0388 13.2479C57.4925 12.2476 60.0029 11.9228 60.4886 13.7708C60.9808 15.6351 60.5312 17.8339 60.7806 19.6722L61.8931 19.7469C62.1589 19.7664 62.149 20.8576 61.8865 20.8674L58.4409 20.9746C58.2112 20.9811 57.8765 20.0847 58.0766 19.971L59.0053 19.4448C59.2219 18.084 59.3171 16.2879 58.7723 14.6673V14.6705Z" fill="white"/>
<path d="M127.904 20.8609C126.451 20.7343 124.715 21.7768 123.675 20.0425C123.32 19.4546 123.248 18.1392 123.576 17.415C123.904 16.6907 125.007 16.1483 125.913 16.1126L127.921 16.0314C127.845 15.2681 127.757 14.5991 127.58 14.2126C127.402 13.8261 126.267 13.6572 125.985 13.8196L125.614 15.0083C125.522 15.3039 124.666 15.4078 124.377 15.2974C124.039 15.1707 123.593 14.2905 123.675 13.9235C123.976 12.6114 125.388 12.5659 126.543 12.4425C127.803 12.3093 129.26 12.8745 129.443 14.284C129.667 15.9956 129.686 17.9216 129.736 19.6008L131.193 19.9775C130.69 21.7281 129.102 20.9551 127.911 20.8544L127.904 20.8609ZM127.698 17.5838C127.248 17.4864 126.188 17.4767 125.719 17.5968C125.181 17.7332 124.977 18.7433 125.253 19.2078C125.466 19.565 126.313 19.7599 126.69 19.5423L127.744 18.9349C127.99 18.7953 127.97 17.6391 127.694 17.5806L127.698 17.5838Z" fill="white"/>
<path d="M74.3695 20.8803C72.791 20.955 71.2126 21.6533 70.2807 20.0359C69.6637 18.9674 69.7064 16.9959 71.3308 16.4113C72.1446 16.119 73.3784 16.119 74.3859 16.0248C74.5631 15.6805 74.4285 14.5405 74.1168 14.1963C73.805 13.852 72.7845 13.511 72.6106 13.9202C72.3973 14.4171 72.1741 14.9465 71.9772 15.2486C71.7803 15.5506 71.0059 15.4467 70.727 15.2291C70.448 15.0115 70.1757 14.1605 70.32 13.8358C71.019 12.2606 74.0052 12.1436 75.2194 12.9329C75.705 13.2479 76.148 14.284 76.171 14.9985L76.3154 19.5844C76.788 19.6559 77.651 19.9514 77.7133 20.2308C77.2113 21.8482 75.3309 20.8316 74.3727 20.8771L74.3695 20.8803ZM74.2448 17.574C73.7624 17.4604 72.6302 17.5091 72.2496 17.6682C71.6852 17.9021 71.5014 18.7822 71.7574 19.2207C72.4465 20.4029 74.1726 19.0778 74.3596 18.9674C74.6123 18.8212 74.5204 17.639 74.2448 17.574Z" fill="white"/>
<path d="M49.2165 20.5589C47.8415 21.452 46.1482 21.3351 45.2754 20.2861C44.4025 19.237 44.4845 17.1357 45.9546 16.4796C46.821 16.0931 47.9531 16.1256 49.1509 16.0671C49.2723 15.7781 49.246 14.7875 49.0721 14.3945C48.8785 13.956 47.6512 13.4753 47.4543 13.9138C47.2016 14.4757 46.9916 14.9726 46.7914 15.2519C46.5913 15.5312 45.6429 15.3948 45.4099 15.1447C45.1769 14.8946 45.0161 14.0567 45.1868 13.7124C45.679 12.7251 47.0441 12.527 48.2353 12.449C52.0419 12.2054 50.7522 17.5254 51.1231 19.6462C51.5792 19.6138 52.6424 19.9548 52.5046 20.299C52.0353 21.4325 50.2272 21.5008 49.2132 20.5654L49.2165 20.5589ZM49.0327 17.6553C48.698 17.4117 47.6085 17.4864 47.0704 17.6358C46.6011 17.7657 46.3747 18.7856 46.6306 19.263C46.8308 19.643 47.6184 19.682 48.2123 19.5845C49.0294 19.4481 49.7678 18.1847 49.0327 17.6553Z" fill="white"/>
<path d="M105.091 20.7764C104.061 20.653 102.627 21.7118 101.432 20.5751C100.612 19.7923 100.363 18.451 100.848 17.4052C101.59 15.8007 103.667 16.197 105.088 16.0378C105.327 16.0118 105.262 14.5406 104.497 13.8813C104.261 13.6766 103.388 13.6831 103.283 13.9852C103.149 14.3717 102.932 15.1025 102.633 15.2648C102.335 15.4272 101.554 15.3136 101.281 15.1122C100.963 14.8783 100.848 13.9105 101.091 13.5857C102.354 11.9033 105.367 12.3255 106.108 13.0693C106.469 13.4298 106.83 14.4139 106.834 15.0083L106.87 19.6364L108.061 19.7988C108.301 19.8313 108.304 20.627 108.091 20.8154C107.349 21.465 105.846 20.8674 105.095 20.7764H105.091ZM104.94 17.5676C104.425 17.4506 103.198 17.4994 102.729 17.7235C102.325 17.9118 102.272 19.0518 102.574 19.3376C102.84 19.5845 103.66 19.7469 103.992 19.5617L105.075 18.9609C105.334 18.818 105.245 17.639 104.94 17.5676Z" fill="white"/>
<path d="M97.2254 20.6531C96.067 20.9649 94.5706 21.5625 93.4024 20.4387C92.3064 19.3896 92.395 16.9927 94.0587 16.3886C94.9972 16.0476 96.0768 16.1126 97.2779 16.0346C97.2385 15.6644 97.1105 14.7972 97.0252 14.3393C96.9399 13.8813 95.6798 13.4558 95.4829 13.8618L94.8758 15.1317C94.7314 15.4305 93.8388 15.3591 93.5336 15.2227C93.176 15.0635 92.9364 14.1314 93.1038 13.7741C93.6649 12.5789 94.9185 12.501 96.1228 12.4328C97.4781 12.3581 98.8005 13.0953 98.8366 14.6316L98.9547 19.6495L100.143 19.7729C100.376 19.7956 100.52 20.6466 100.31 20.7537C99.3748 21.2247 98.3017 21.478 97.2254 20.6498V20.6531ZM97.0219 17.5806C96.5592 17.415 95.2893 17.4994 94.7905 17.717C94.3868 17.8924 94.3081 19.0941 94.6461 19.3474C95.6076 20.062 96.6117 19.2857 97.1696 18.9479C97.419 18.7985 97.3337 17.6943 97.0186 17.5806H97.0219Z" fill="white"/>
<path d="M66.7038 12.6666L69.7425 12.5399C70.6023 13.4883 69.2371 13.7416 69.0238 14.2905L66.4675 20.8382C66.3559 21.124 65.4338 21.2084 65.1483 21.0135L62.5592 14.0437L61.5091 13.7059C61.2597 13.6247 61.6076 12.6341 61.8701 12.6341L65.1779 12.6211C65.3551 12.6211 65.5782 13.4168 65.4371 13.5208L64.4986 14.2126L65.9195 18.2269L67.5734 14.0729L66.6644 13.7838C66.4117 13.7026 66.438 12.6796 66.7038 12.6666Z" fill="white"/>
<path d="M135.426 19.5131C135.675 19.5228 135.974 20.3738 135.767 20.4712L134.819 20.9194C134.422 21.1078 133.496 21.1305 133.096 20.9649C132.564 20.744 132.164 19.8898 132.167 19.2565L132.177 14.0827L130.93 13.9625C130.697 13.9398 130.713 13.2188 130.763 12.9687C130.805 12.7413 131.183 12.6699 131.698 12.5529C133.148 12.2152 131.685 9.9839 133.696 10.0294L133.818 12.5335L135.81 12.6861C136.171 12.7153 135.967 13.956 135.577 13.9788L133.759 14.0924L133.778 19.4514L135.422 19.5131H135.426Z" fill="white"/>
<path d="M29.0547 0H28.4903V29H29.0547V0Z" fill="white"/>
</g>
<defs>
<clipPath id="clip0_307_887">
<rect width="136" height="29" fill="white"/>
</clipPath>
</defs>
</svg>
