<svg width="182" height="30" viewBox="0 0 182 30" fill="none" xmlns="http://www.w3.org/2000/svg">
<path d="M27.4559 13.4591L22.1824 18.0095L23.7891 24.8146C23.8777 25.184 23.8549 25.5714 23.7235 25.9278C23.5921 26.2843 23.3579 26.5938 23.0507 26.8173C22.7435 27.0407 22.3769 27.1681 21.9973 27.1834C21.6177 27.1986 21.2421 27.101 20.918 26.9029L15 23.2607L9.07852 26.9029C8.75441 27.0998 8.37927 27.1965 8.00032 27.1807C7.62138 27.1649 7.25558 27.0374 6.94899 26.8141C6.6424 26.5908 6.40873 26.2818 6.27739 25.926C6.14606 25.5702 6.12294 25.1835 6.21094 24.8146L7.82344 18.0095L2.55 13.4591C2.26324 13.2113 2.05585 12.8844 1.95373 12.5194C1.85161 12.1544 1.85929 11.7674 1.9758 11.4068C2.09232 11.0461 2.3125 10.7278 2.60887 10.4915C2.90523 10.2552 3.26463 10.1115 3.64219 10.0783L10.5563 9.52044L13.2234 3.06576C13.3678 2.71398 13.6135 2.41308 13.9293 2.20131C14.2452 1.98954 14.6168 1.87646 14.9971 1.87646C15.3773 1.87646 15.749 1.98954 16.0648 2.20131C16.3806 2.41308 16.6263 2.71398 16.7707 3.06576L19.4367 9.52044L26.3508 10.0783C26.7291 10.1103 27.0895 10.2532 27.387 10.4891C27.6844 10.7251 27.9056 11.0435 28.0229 11.4046C28.1401 11.7658 28.1482 12.1534 28.0461 12.5191C27.9439 12.8848 27.7362 13.2122 27.4488 13.4603L27.4559 13.4591Z" fill="#A7DDE6"/>
<path d="M65.4559 13.4591L60.1824 18.0095L61.7891 24.8146C61.8777 25.184 61.8549 25.5714 61.7235 25.9278C61.5921 26.2843 61.3579 26.5938 61.0507 26.8173C60.7435 27.0407 60.3769 27.1681 59.9973 27.1834C59.6177 27.1986 59.2421 27.101 58.918 26.9029L53 23.2607L47.0785 26.9029C46.7544 27.0998 46.3793 27.1965 46.0003 27.1807C45.6214 27.1649 45.2556 27.0374 44.949 26.8141C44.6424 26.5908 44.4087 26.2818 44.2774 25.926C44.1461 25.5702 44.1229 25.1835 44.2109 24.8146L45.8234 18.0095L40.55 13.4591C40.2632 13.2113 40.0559 12.8844 39.9537 12.5194C39.8516 12.1544 39.8593 11.7674 39.9758 11.4068C40.0923 11.0461 40.3125 10.7278 40.6089 10.4915C40.9052 10.2552 41.2646 10.1115 41.6422 10.0783L48.5563 9.52044L51.2234 3.06576C51.3678 2.71398 51.6135 2.41308 51.9293 2.20131C52.2452 1.98954 52.6168 1.87646 52.9971 1.87646C53.3773 1.87646 53.749 1.98954 54.0648 2.20131C54.3806 2.41308 54.6263 2.71398 54.7707 3.06576L57.4367 9.52044L64.3508 10.0783C64.7291 10.1103 65.0895 10.2532 65.387 10.4891C65.6844 10.7251 65.9056 11.0435 66.0229 11.4046C66.1401 11.7658 66.1482 12.1534 66.0461 12.5191C65.9439 12.8848 65.7362 13.2122 65.4488 13.4603L65.4559 13.4591Z" fill="#A7DDE6"/>
<path d="M103.456 13.4591L98.1824 18.0095L99.7891 24.8146C99.8777 25.184 99.8549 25.5714 99.7235 25.9278C99.5921 26.2843 99.3579 26.5938 99.0507 26.8173C98.7435 27.0407 98.3769 27.1681 97.9973 27.1834C97.6177 27.1986 97.2421 27.101 96.918 26.9029L91 23.2607L85.0785 26.9029C84.7544 27.0998 84.3793 27.1965 84.0003 27.1807C83.6214 27.1649 83.2556 27.0374 82.949 26.8141C82.6424 26.5908 82.4087 26.2818 82.2774 25.926C82.1461 25.5702 82.1229 25.1835 82.2109 24.8146L83.8234 18.0095L78.55 13.4591C78.2632 13.2113 78.0559 12.8844 77.9537 12.5194C77.8516 12.1544 77.8593 11.7674 77.9758 11.4068C78.0923 11.0461 78.3125 10.7278 78.6089 10.4915C78.9052 10.2552 79.2646 10.1115 79.6422 10.0783L86.5563 9.52044L89.2234 3.06576C89.3678 2.71398 89.6135 2.41308 89.9293 2.20131C90.2452 1.98954 90.6168 1.87646 90.9971 1.87646C91.3773 1.87646 91.749 1.98954 92.0648 2.20131C92.3806 2.41308 92.6263 2.71398 92.7707 3.06576L95.4367 9.52044L102.351 10.0783C102.729 10.1103 103.09 10.2532 103.387 10.4891C103.684 10.7251 103.906 11.0435 104.023 11.4046C104.14 11.7658 104.148 12.1534 104.046 12.5191C103.944 12.8848 103.736 13.2122 103.449 13.4603L103.456 13.4591Z" fill="#A7DDE6"/>
<path d="M141.456 13.4591L136.182 18.0095L137.789 24.8146C137.878 25.184 137.855 25.5714 137.723 25.9278C137.592 26.2843 137.358 26.5938 137.051 26.8173C136.743 27.0407 136.377 27.1681 135.997 27.1834C135.618 27.1986 135.242 27.101 134.918 26.9029L129 23.2607L123.079 26.9029C122.754 27.0998 122.379 27.1965 122 27.1807C121.621 27.1649 121.256 27.0374 120.949 26.8141C120.642 26.5908 120.409 26.2818 120.277 25.926C120.146 25.5702 120.123 25.1835 120.211 24.8146L121.823 18.0095L116.55 13.4591C116.263 13.2113 116.056 12.8844 115.954 12.5194C115.852 12.1544 115.859 11.7674 115.976 11.4068C116.092 11.0461 116.312 10.7278 116.609 10.4915C116.905 10.2552 117.265 10.1115 117.642 10.0783L124.556 9.52044L127.223 3.06576C127.368 2.71398 127.614 2.41308 127.929 2.20131C128.245 1.98954 128.617 1.87646 128.997 1.87646C129.377 1.87646 129.749 1.98954 130.065 2.20131C130.381 2.41308 130.626 2.71398 130.771 3.06576L133.437 9.52044L140.351 10.0783C140.729 10.1103 141.09 10.2532 141.387 10.4891C141.684 10.7251 141.906 11.0435 142.023 11.4046C142.14 11.7658 142.148 12.1534 142.046 12.5191C141.944 12.8848 141.736 13.2122 141.449 13.4603L141.456 13.4591Z" fill="#A7DDE6"/>
<path d="M179.456 13.4591L174.182 18.0095L175.789 24.8146C175.878 25.184 175.855 25.5714 175.723 25.9278C175.592 26.2843 175.358 26.5938 175.051 26.8173C174.743 27.0407 174.377 27.1681 173.997 27.1834C173.618 27.1986 173.242 27.101 172.918 26.9029L167 23.2607L161.079 26.9029C160.754 27.0998 160.379 27.1965 160 27.1807C159.621 27.1649 159.256 27.0374 158.949 26.8141C158.642 26.5908 158.409 26.2818 158.277 25.926C158.146 25.5702 158.123 25.1835 158.211 24.8146L159.823 18.0095L154.55 13.4591C154.263 13.2113 154.056 12.8844 153.954 12.5194C153.852 12.1544 153.859 11.7674 153.976 11.4068C154.092 11.0461 154.312 10.7278 154.609 10.4915C154.905 10.2552 155.265 10.1115 155.642 10.0783L162.556 9.52044L165.223 3.06576C165.368 2.71398 165.614 2.41308 165.929 2.20131C166.245 1.98954 166.617 1.87646 166.997 1.87646C167.377 1.87646 167.749 1.98954 168.065 2.20131C168.381 2.41308 168.626 2.71398 168.771 3.06576L171.437 9.52044L178.351 10.0783C178.729 10.1103 179.09 10.2532 179.387 10.4891C179.684 10.7251 179.906 11.0435 180.023 11.4046C180.14 11.7658 180.148 12.1534 180.046 12.5191C179.944 12.8848 179.736 13.2122 179.449 13.4603L179.456 13.4591Z" fill="#A7DDE6"/>
</svg>
