<svg width="32" height="32" viewBox="0 0 32 32" fill="none" xmlns="http://www.w3.org/2000/svg">
<path opacity="0.2" d="M20.4925 10.0137C20.3287 9.99992 20.165 9.99992 20 9.99992C18.5614 9.99981 17.1438 10.3445 15.866 11.0052C14.5881 11.6659 13.4872 12.6232 12.6556 13.797C11.824 14.9708 11.2859 16.3268 11.0863 17.7515C10.8868 19.1761 11.0316 20.6278 11.5087 21.9849C10.1968 21.9152 8.91645 21.5571 7.75873 20.9362L4.28873 21.9562C4.11642 22.0068 3.93367 22.01 3.75967 21.9656C3.58567 21.9212 3.42683 21.8308 3.29985 21.7038C3.17287 21.5768 3.08242 21.418 3.03802 21.244C2.99361 21.07 2.99688 20.8872 3.04748 20.7149L4.06248 17.2499C3.48353 16.1571 3.13601 14.9567 3.0416 13.7236C2.9472 12.4906 3.10794 11.2513 3.51379 10.0831C3.91964 8.91485 4.56189 7.84283 5.40047 6.93388C6.23905 6.02493 7.25595 5.29856 8.38773 4.80009C9.51952 4.30162 10.7419 4.04175 11.9786 4.0367C13.2152 4.03164 14.4397 4.28151 15.5755 4.77072C16.7113 5.25992 17.7341 5.97796 18.5801 6.88002C19.4261 7.78209 20.0771 8.84883 20.4925 10.0137Z" fill="#013656"/>
<path d="M18 17.5C18 17.7966 17.9121 18.0866 17.7472 18.3333C17.5824 18.58 17.3481 18.7722 17.0741 18.8858C16.8 18.9993 16.4984 19.029 16.2074 18.9711C15.9164 18.9133 15.6492 18.7704 15.4394 18.5606C15.2296 18.3508 15.0867 18.0836 15.0289 17.7926C14.971 17.5016 15.0007 17.2 15.1142 16.9259C15.2277 16.6518 15.42 16.4176 15.6667 16.2527C15.9134 16.0879 16.2034 16 16.5 16C16.8979 16 17.2794 16.158 17.5607 16.4393C17.842 16.7206 18 17.1021 18 17.5ZM23.5 16C23.2034 16 22.9134 16.0879 22.6667 16.2527C22.42 16.4176 22.2277 16.6518 22.1142 16.9259C22.0007 17.2 21.971 17.5016 22.0289 17.7926C22.0867 18.0836 22.2296 18.3508 22.4394 18.5606C22.6492 18.7704 22.9164 18.9133 23.2074 18.9711C23.4984 19.029 23.8 18.9993 24.0741 18.8858C24.3481 18.7722 24.5824 18.58 24.7472 18.3333C24.9121 18.0866 25 17.7966 25 17.5C25 17.1021 24.842 16.7206 24.5607 16.4393C24.2794 16.158 23.8979 16 23.5 16ZM29.9175 26.4337C30.0191 26.7785 30.0259 27.1443 29.9372 27.4927C29.8485 27.841 29.6675 28.159 29.4133 28.4132C29.1591 28.6674 28.8411 28.8484 28.4928 28.9371C28.1444 29.0259 27.7786 29.0191 27.4338 28.9175L24.345 28.0087C23.1274 28.596 21.8033 28.9303 20.4528 28.9913C19.1023 29.0524 17.7534 28.839 16.4877 28.3641C15.222 27.8892 14.0657 27.1625 13.0888 26.2281C12.1118 25.2936 11.3345 24.1708 10.8038 22.9275C9.71032 22.7989 8.64606 22.4883 7.65503 22.0087L4.56628 22.9175C4.22147 23.0191 3.85564 23.0259 3.50729 22.9371C3.15894 22.8484 2.84095 22.6674 2.58676 22.4132C2.33258 22.159 2.1516 21.841 2.06287 21.4927C1.97413 21.1443 1.98093 20.7785 2.08253 20.4337L2.99128 17.345C2.42134 16.1458 2.09592 14.8451 2.03398 13.5188C1.97205 12.1925 2.17485 10.8672 2.63056 9.62013C3.08627 8.37306 3.78576 7.22922 4.68821 6.25535C5.59067 5.28148 6.67803 4.49707 7.88686 3.94789C9.09569 3.39871 10.4018 3.09575 11.7289 3.0567C13.0561 3.01764 14.3777 3.24326 15.6168 3.7204C16.8558 4.19754 17.9874 4.91664 18.9456 5.83575C19.9037 6.75487 20.6693 7.85559 21.1975 9.0737C22.777 9.26404 24.2883 9.82849 25.6059 10.7202C26.9235 11.6119 28.0093 12.805 28.7731 14.2006C29.537 15.5962 29.9568 17.1538 29.9978 18.7443C30.0388 20.3347 29.6997 21.9119 29.0088 23.345L29.9175 26.4337ZM10.1625 20.7875C9.9152 19.4328 9.95054 18.0416 10.2663 16.7012C10.5821 15.3609 11.1715 14.1002 11.9976 12.9984C12.8237 11.8967 13.8686 10.9775 15.0667 10.2987C16.2648 9.61985 17.5903 9.19599 18.96 9.0537C17.9363 7.19503 16.2161 5.81917 14.178 5.22878C12.1398 4.63839 9.95058 4.88184 8.09191 5.90558C6.23324 6.92931 4.85737 8.64947 4.26698 10.6876C3.67659 12.7258 3.92005 14.915 4.94378 16.7737C5.0669 17.0038 5.09517 17.273 5.02253 17.5237L4.00003 21L7.47003 19.9787C7.72073 19.9061 7.98989 19.9343 8.22003 20.0575C8.8328 20.3847 9.48588 20.6302 10.1625 20.7875ZM27.0563 22.7737C27.9609 21.0819 28.2274 19.1214 27.8073 17.2495C27.3872 15.3777 26.3084 13.7191 24.7676 12.5761C23.2268 11.4332 21.3265 10.882 19.4133 11.0231C17.5 11.1641 15.7012 11.988 14.3446 13.3446C12.9881 14.7011 12.1642 16.5 12.0232 18.4132C11.8821 20.3265 12.4333 22.2267 13.5762 23.7675C14.7192 25.3083 16.3777 26.3871 18.2496 26.8072C20.1215 27.2274 22.082 26.9608 23.7738 26.0562C24.0039 25.9331 24.2731 25.9048 24.5238 25.9775L28 27L26.9788 23.53C26.9041 23.2775 26.9319 23.0058 27.0563 22.7737Z" fill="#013656"/>
</svg>
