<svg width="32" height="32" viewBox="0 0 32 32" fill="none" xmlns="http://www.w3.org/2000/svg">
<path opacity="0.2" d="M27 7V25C27 25.5304 26.7893 26.0391 26.4142 26.4142C26.0391 26.7893 25.5304 27 25 27H7C6.46957 27 5.96086 26.7893 5.58579 26.4142C5.21071 26.0391 5 25.5304 5 25V7C5 6.46957 5.21071 5.96086 5.58579 5.58579C5.96086 5.21071 6.46957 5 7 5H25C25.5304 5 26.0391 5.21071 26.4142 5.58579C26.7893 5.96086 27 6.46957 27 7Z" fill="#013656"/>
<path d="M25.7074 24.2924C25.8004 24.3854 25.8741 24.4957 25.9243 24.6171C25.9746 24.7384 26.0005 24.8686 26.0005 24.9999C26.0005 25.1313 25.9746 25.2614 25.9243 25.3828C25.8741 25.5042 25.8004 25.6145 25.7074 25.7074C25.6145 25.8004 25.5042 25.8741 25.3828 25.9243C25.2614 25.9746 25.1313 26.0005 24.9999 26.0005C24.8686 26.0005 24.7384 25.9746 24.6171 25.9243C24.4957 25.8741 24.3854 25.8004 24.2924 25.7074L15.9999 17.4137L7.70745 25.7074C7.5198 25.8951 7.26531 26.0005 6.99995 26.0005C6.73458 26.0005 6.48009 25.8951 6.29245 25.7074C6.1048 25.5198 5.99939 25.2653 5.99939 24.9999C5.99939 24.7346 6.10481 24.4801 6.29245 24.2924L14.5862 15.9999L6.29245 7.70745C6.1048 7.5198 5.99939 7.26531 5.99939 6.99995C5.99939 6.73458 6.1048 6.48009 6.29245 6.29245C6.48009 6.1048 6.73458 5.99939 6.99995 5.99939C7.26531 5.99939 7.5198 6.1048 7.70745 6.29245L15.9999 14.5862L24.2924 6.29245C24.4801 6.10481 24.7346 5.99939 24.9999 5.99939C25.2653 5.99939 25.5198 6.1048 25.7074 6.29245C25.8951 6.48009 26.0005 6.73458 26.0005 6.99995C26.0005 7.26531 25.8951 7.5198 25.7074 7.70745L17.4137 15.9999L25.7074 24.2924Z" fill="#013656"/>
</svg>
